<svg xmlns="http://www.w3.org/2000/svg" xmlns:xlink="http://www.w3.org/1999/xlink" xmlns:lucid="lucid" width="994.33" height="450.5"><g transform="translate(567.5664404964334 661.9672410456724)" lucid:page-tab-id="0_0"><path d="M-215.63-331.97h53.34v40h-53.33z" fill="#c3f7c8"/><path d="M-162.3-331.97h53.34v40h-53.33zM-108.96-331.97h53.33v40h-53.33z" fill="#c3f7c8"/><path d="M-55.63-331.97H-2.3v40h-53.33zM-215.63-291.97h53.34v40h-53.33z" fill="#c3f7c8"/><path d="M-162.3-291.97h53.34v40h-53.33zM-108.96-291.97h53.33v40h-53.33z" fill="#c3f7c8"/><path d="M-55.63-291.97H-2.3v40h-53.33zM-215.63-251.97h53.34v40h-53.33z" fill="#c3f7c8"/><path d="M-162.3-251.97h53.34v40h-53.33z" fill="#ffdda6"/><path d="M-108.96-251.97h53.33v40h-53.33z" fill="#fcce14"/><path d="M-55.63-251.97H-2.3v40h-53.33z" fill="#ffdda6"/><path d="M-215.63-331.97v40M-215.63-331.97h53.34M-162.3-331.97v40M-162.3-331.97h53.34M-108.96-331.97v40M-108.96-331.97h53.33M-55.63-331.97v40M-2.3-331.97v40M-55.63-331.97H-2.3M-215.63-291.97v40M-215.63-291.97h53.34M-162.3-291.97v40M-162.3-291.97h53.34M-108.96-291.97v40M-108.96-291.97h53.33M-55.63-291.97v40M-2.3-291.97v40M-55.63-291.97H-2.3M-215.63-251.97v40M-215.63-251.97h53.34M-215.63-211.97h53.34M-162.3-251.97v40M-162.3-251.97h53.34M-162.3-211.97h53.34M-108.96-251.97v40M-108.96-251.97h53.33M-108.96-211.97h53.33M-55.63-251.97v40M-2.3-251.97v40M-55.63-251.97H-2.3M-55.63-211.97H-2.3" stroke="#4c535d" fill="none"/><use xlink:href="#a" transform="matrix(1,0,0,1,-103.9609530220851,-246.96724104567238) translate(17.02875434027778 23.89214409722222)"/><path d="M-215.63-365.97a6 6 0 0 1 6-6h56.56a6 6 0 0 1 6 6v28a6 6 0 0 1-6 6h-56.56a6 6 0 0 1-6-6z" fill="none"/><use xlink:href="#b" transform="matrix(1,0,0,1,-215.62761968875174,-371.9672410456724) translate(6.168836805555557 28.08376736111111)"/><path d="M212.93-610.64h35.56v28.1h-35.57zM248.5-610.64h35.55v28.1H248.5z" fill="#00a7e1" fill-opacity=".59"/><path d="M284.05-610.64h35.55v28.1h-35.56zM319.6-610.64h35.56v28.1H319.6zM355.16-610.64h35.55v28.1h-35.54z" fill="#00a7e1" fill-opacity=".59"/><path d="M390.7-610.64h35.57v28.1H390.7zM212.93-582.53h35.56v28.12h-35.57zM248.5-582.53h35.55v28.12H248.5z" fill="#00a7e1" fill-opacity=".59"/><path d="M284.05-582.53h35.55v28.12h-35.56zM319.6-582.53h35.56v28.12H319.6zM355.16-582.53h35.55v28.12h-35.54z" fill="#00a7e1" fill-opacity=".59"/><path d="M390.7-582.53h35.57v28.12H390.7zM212.93-554.4h35.56v28.1h-35.57zM248.5-554.4h35.55v28.1H248.5z" fill="#00a7e1" fill-opacity=".59"/><path d="M284.05-554.4h35.55v28.1h-35.56zM319.6-554.4h35.56v28.1H319.6zM355.16-554.4h35.55v28.1h-35.54z" fill="#00a7e1" fill-opacity=".59"/><path d="M390.7-554.4h35.57v28.1H390.7zM212.93-526.3h35.56v28.1h-35.57z" fill="#00a7e1" fill-opacity=".59"/><path d="M248.5-526.3h35.55v28.1H248.5z" fill="#979ea8"/><path d="M284.05-526.3h35.55v28.1h-35.56zM319.6-526.3h35.56v28.1H319.6zM355.16-526.3h35.55v28.1h-35.54z" fill="#979ea8"/><path d="M390.7-526.3h35.57v28.1H390.7zM212.93-498.2h35.56v36.9h-35.57zM248.5-498.2h35.55v36.9H248.5z" fill="#979ea8"/><path d="M284.05-498.2h35.55v36.9h-35.56z" fill="#979ea8"/><path d="M319.6-498.2h35.56v36.9H319.6z" fill="#f4d9ff"/><path d="M355.16-498.2h35.55v36.9h-35.54z" fill="#979ea8"/><path d="M390.7-498.2h35.57v36.9H390.7zM212.93-461.3h35.56v28.1h-35.57zM248.5-461.3h35.55v28.1H248.5z" fill="#6db1ff"/><path d="M284.05-461.3h35.55v28.1h-35.56zM319.6-461.3h35.56v28.1H319.6zM355.16-461.3h35.55v28.1h-35.54z" fill="#6db1ff"/><path d="M390.7-461.3h35.57v28.1H390.7z" fill="#6db1ff"/><path d="M212.93-610.64v28.1M212.93-610.64h35.56M248.5-610.64v28.1M248.5-610.64h35.55M284.05-610.64v28.1M284.05-610.64h35.55M319.6-610.64v28.1M319.6-610.64h35.56M355.16-610.64v28.1M355.16-610.64h35.55M390.7-610.64v28.1M426.27-610.64v28.1M390.7-610.64h35.57M212.93-582.53v28.12M212.93-582.53h35.56M248.5-582.53v28.12M248.5-582.53h35.55M284.05-582.53v28.12M284.05-582.53h35.55M319.6-582.53v28.12M319.6-582.53h35.56M355.16-582.53v28.12M355.16-582.53h35.55M390.7-582.53v28.12M426.27-582.53v28.12M390.7-582.53h35.57M212.93-554.4v28.1M212.93-554.4h35.56M248.5-554.4v28.1M248.5-554.4h35.55M284.05-554.4v28.1M284.05-554.4h35.55M319.6-554.4v28.1M319.6-554.4h35.56M355.16-554.4v28.1M355.16-554.4h35.55M390.7-554.4v28.1M426.27-554.4v28.1M390.7-554.4h35.57M212.93-526.3v28.1M212.93-526.3h35.56M248.5-526.3v28.1M248.5-526.3h35.55M284.05-526.3v28.1M284.05-526.3h35.55M319.6-526.3v28.1M319.6-526.3h35.56M355.16-526.3v28.1M355.16-526.3h35.55M390.7-526.3v28.1M426.27-526.3v28.1M390.7-526.3h35.57M212.93-498.2v36.9M212.93-498.2h35.56M248.5-498.2v36.9M248.5-498.2h35.55M284.05-498.2v36.9M284.05-498.2h35.55M319.6-498.2v36.9M319.6-498.2h35.56M355.16-498.2v36.9M355.16-498.2h35.55M390.7-498.2v36.9M426.27-498.2v36.9M390.7-498.2h35.57M212.93-461.3v28.1M212.93-461.3h35.56M212.93-433.2h35.56M248.5-461.3v28.1M248.5-461.3h35.55M248.5-433.2h35.55M284.05-461.3v28.1M284.05-461.3h35.55M284.05-433.2h35.55M319.6-461.3v28.1M319.6-461.3h35.56M319.6-433.2h35.56M355.16-461.3v28.1M355.16-461.3h35.55M355.16-433.2h35.55M390.7-461.3v28.1M426.27-461.3v28.1M390.7-461.3h35.57M390.7-433.2h35.57" stroke="#4c535d" fill="none"/><use xlink:href="#c" transform="matrix(1,0,0,1,324.6002261702332,-493.1907532481262) translate(6.223741319444445 21.58376736111111)"/><path d="M212.93-655.97a6 6 0 0 1 6-6h74.44a6 6 0 0 1 6 6v39.33a6 6 0 0 1-6 6h-74.44a6 6 0 0 1-6-6z" fill="none"/><use xlink:href="#d" transform="matrix(1,0,0,1,212.93355950356658,-661.9672410456724) translate(3.634548611111107 34.083767361111114)"/><path d="M-547.07-318a6 6 0 0 1 6-6H-425a6 6 0 0 1 6 6v48a6 6 0 0 1-6 6h-116.07a6 6 0 0 1-6-6z" fill="none"/><use xlink:href="#e" transform="matrix(1,0,0,1,-547.0664404964334,-323.9927881183012) translate(34.60633680555556 38.083767361111114)"/><path d="M-384.14-293.52h-34.37v-.95h34.36zm151.63 0h-50.96v-.95h50.95z" stroke="#3a414a" stroke-width=".05" fill="#3a414a"/><path d="M-418.5-293.52h-.5v-.95h.5z" fill="#3a414a"/><path stroke="#3a414a" stroke-width=".05" fill="#3a414a"/><path d="M-217.75-294l-14.26 4.64v-9.27z" fill="#3a414a"/><path d="M-216.2-294l-16.3 5.3v-10.58zm-15.34 4l12.26-4-12.26-3.97z" stroke="#3a414a" stroke-width=".05" fill="#3a414a"/><use xlink:href="#f" transform="matrix(1,0,0,1,-384.13606938374045,-307.43679853496786) translate(0 21.52777777777778)"/><path d="M-567.07-258a6 6 0 0 1 6-6h34.73a6 6 0 0 1 6 6v32.06a6 6 0 0 1-6 6h-34.73a6 6 0 0 1-6-6z" stroke="#000" fill="#fcce14"/><use xlink:href="#g" transform="matrix(1,0,0,1,-562.0664404964334,-258.9927881183012) translate(13.98068576388889 25.90277777777778)"/><path d="M-519.34-241.97h55.4" stroke="#3a414a" fill="none"/><path d="M-519.33-241.5h-.5v-.94h.5z" stroke="#3a414a" stroke-width=".05" fill="#3a414a"/><path d="M-449.18-241.97l-14.27 4.64v-9.27z" stroke="#3a414a" fill="#3a414a"/><path d="M-447.07-258a6 6 0 0 1 6-6h34.73a6 6 0 0 1 6 6v32.06a6 6 0 0 1-6 6h-34.73a6 6 0 0 1-6-6z" fill="#f4d9ff"/><path d="M-429.5-264h11.6m5.77 0h5.8a6 6 0 0 1 6 6v5.35m0 5.34v10.68m0 5.34v5.34a6 6 0 0 1-6 6h-5.8m-5.78 0h-11.6m-5.78 0h-5.8a6 6 0 0 1-6-6v-5.34m0-5.34v-10.7m0-5.33V-258a6 6 0 0 1 6-6h5.8" stroke="#000" fill="none"/><use xlink:href="#h" transform="matrix(1,0,0,1,-442.0664404964335,-258.9927881183012) translate(11.723741319444445 25.90277777777778)"/><path d="M-68.96-255.97a6 6 0 0 1 6-6h68a6 6 0 0 1 6 6v16.82a6 6 0 0 1-6 6h-68a6 6 0 0 1-6-6z" fill="none"/><path d="M-68.96-257.56h20v20h-20z" stroke="#008a0e" stroke-width="2" fill="#fff"/><path d="M-64.96-249.56l4 6 8-8" stroke="#008a0e" stroke-width="3" fill="none"/><path d="M346.27-505.97a6 6 0 0 1 6-6h68a6 6 0 0 1 6 6v16.82a6 6 0 0 1-6 6h-68a6 6 0 0 1-6-6z" fill="none"/><path d="M346.27-507.56h20v20h-20z" stroke="#008a0e" stroke-width="2" fill="#fff"/><path d="M350.27-499.56l4 6 8-8" stroke="#008a0e" stroke-width="3" fill="none"/><path d="M107.76-287.15H-1.3v-.95h109.06zm195.52-6.45l-.08 1-.24.98-.38.94-.54.87-.66.76-.77.66-.86.53-.93.4-.98.22-1 .08h-88.38v-.95h88.35l.87-.07.84-.2.8-.33.75-.45.66-.57.57-.65.46-.74.33-.8.2-.86.07-.88V-416.3h.95z" stroke="#3a414a" stroke-width=".05" fill="#3a414a"/><path d="M-1.28-287.15h-.5v-.95h.5z" fill="#3a414a"/><path stroke="#3a414a" stroke-width=".05" fill="#3a414a"/><path d="M307.44-416.8h-9.27l4.63-14.27z" fill="#3a414a"/><path d="M308.1-416.33h-10.6l5.3-16.28zm-9.28-.95h7.97l-4-12.26z" stroke="#3a414a" stroke-width=".05" fill="#3a414a"/><use xlink:href="#f" transform="matrix(1,0,0,1,107.76440713757509,-301.06552776851885) translate(0 21.52777777777778)"/><path d="M132.93-263.58a6 6 0 0 1 6-6h34.73a6 6 0 0 1 6 6v32.05a6 6 0 0 1-6 6h-34.73a6 6 0 0 1-6-6z" fill="#f4d9ff"/><path d="M150.5-269.58h11.6m5.77 0h5.8a6 6 0 0 1 6 6v5.34m0 5.34v10.68m0 5.34v5.35a6 6 0 0 1-6 6h-5.8m-5.78 0h-11.6m-5.78 0h-5.8a6 6 0 0 1-6-6v-5.35m0-5.34v-10.68m0-5.34v-5.34a6 6 0 0 1 6-6h5.8" stroke="#000" fill="none"/><use xlink:href="#h" transform="matrix(1,0,0,1,137.93355950356653,-264.58515105315246) translate(11.723741319444445 25.90277777777778)"/><path d="M-216.63-271.97h-28.97a6 6 0 0 0-6 6v8a6 6 0 0 1-6 6h-13.08" stroke="#3a414a" fill="none"/><path d="M-216.13-271.5h-.5v-.94h.5z" stroke="#3a414a" stroke-width=".05" fill="#3a414a"/><path d="M-285.45-251.97l14.27-4.63v9.27z" stroke="#3a414a" fill="#3a414a"/><use xlink:href="#i" transform="matrix(1,0,0,1,-320.00046827421124,-243.3319861300482) translate(0 17.22222222222222)"/><use xlink:href="#j" transform="matrix(1,0,0,1,-320.00046827421124,-243.3319861300482) translate(39.38368055555556 17.22222222222222)"/><defs><path d="M653-1490V0H466v-1314h-10L96-1047v-204l324-239h233" id="k"/><use transform="matrix(0.01193576388888889,0,0,0.01193576388888889,0,0)" xlink:href="#k" id="a"/><path fill="#3a414a" d="M180 0v-1490h190v1322h690V0H180" id="l"/><path fill="#3a414a" d="M613 24c-304 0-509-231-509-576 0-350 205-580 509-580 305 0 511 230 511 580 0 345-206 576-511 576zm0-161c226 0 329-195 329-415 0-222-103-419-329-419-223 0-326 196-326 419 0 220 103 415 326 415" id="m"/><path fill="#3a414a" d="M613 24c-304 0-509-231-509-576 0-350 205-580 509-580 216 0 392 114 453 309l-173 49c-33-115-133-197-280-197-223 0-326 196-326 419 0 220 103 415 326 415 150 0 252-85 285-206l172 49C1010-95 832 24 613 24" id="n"/><path fill="#3a414a" d="M471 26C259 26 90-98 90-318c0-256 228-303 435-329 202-27 287-16 287-108 0-139-79-219-234-219-161 0-248 86-283 164l-173-57c86-203 278-265 451-265 150 0 419 46 419 395V0H815v-152h-12C765-73 660 26 471 26zm31-159c199 0 310-134 310-271v-155c-30 35-226 55-295 64-131 17-246 59-246 186 0 116 97 176 231 176" id="o"/><path fill="#3a414a" d="M338-1490V0H158v-1490h180" id="p"/><g id="b"><use transform="matrix(0.010850694444444444,0,0,0.010850694444444444,0,0)" xlink:href="#l"/><use transform="matrix(0.010850694444444444,0,0,0.010850694444444444,12.565104166666666,0)" xlink:href="#m"/><use transform="matrix(0.010850694444444444,0,0,0.010850694444444444,25.889756944444443,0)" xlink:href="#n"/><use transform="matrix(0.010850694444444444,0,0,0.010850694444444444,38.80208333333333,0)" xlink:href="#o"/><use transform="matrix(0.010850694444444444,0,0,0.010850694444444444,51.28038194444444,0)" xlink:href="#p"/></g><path d="M154 0v-137l495-537c165-179 249-281 249-418 0-156-121-253-280-253-170 0-278 110-278 278H158c0-264 200-443 465-443 266 0 455 183 455 416 0 161-73 288-336 568L416-179v12h687V0H154" id="q"/><use transform="matrix(0.010850694444444444,0,0,0.010850694444444444,0,0)" xlink:href="#q" id="c"/><path fill="#3a414a" d="M180 0v-1490h510c348 0 508 194 508 460 0 198-88 351-276 417L1256 0h-220L726-579c-117 2-238 0-356 1V0H180zm190-747h312c235 0 327-108 327-283 0-177-92-293-329-293H370v576" id="r"/><path fill="#3a414a" d="M628 24c-324 0-524-230-524-574 0-343 198-582 503-582 237 0 487 146 487 559v75H286c9 234 145 362 343 362 132 0 231-58 273-172l174 48C1024-91 857 24 628 24zM287-650h624c-17-190-120-322-304-322-192 0-309 151-320 322" id="s"/><path fill="#3a414a" d="M158 0v-1118h175l1 205c55-151 181-225 313-225 147 0 245 90 285 228 53-141 190-228 352-228 194 0 352 125 352 384V0h-181v-749c0-161-105-225-225-225-151 0-243 103-243 244V0H807v-767c0-124-93-207-219-207-131 0-250 92-250 270V0H158" id="t"/><path fill="#3a414a" d="M598-1118v154H368v674c0 100 37 144 132 144 23 0 62-6 92-12L629-6c-37 13-88 20-134 20-193 0-307-107-307-290v-688H20v-154h168v-266h180v266h230" id="u"/><g id="d"><use transform="matrix(0.010850694444444444,0,0,0.010850694444444444,0,0)" xlink:href="#r"/><use transform="matrix(0.010850694444444444,0,0,0.010850694444444444,13.975694444444445,0)" xlink:href="#s"/><use transform="matrix(0.010850694444444444,0,0,0.010850694444444444,26.931423611111104,0)" xlink:href="#t"/><use transform="matrix(0.010850694444444444,0,0,0.010850694444444444,46.39756944444444,0)" xlink:href="#m"/><use transform="matrix(0.010850694444444444,0,0,0.010850694444444444,59.72222222222222,0)" xlink:href="#u"/><use transform="matrix(0.010850694444444444,0,0,0.010850694444444444,66.77517361111111,0)" xlink:href="#s"/></g><path d="M180 0v-1490h510c348 0 508 209 508 474 0 266-160 477-507 477H370V0H180zm190-706h312c236 0 327-133 327-310 0-176-91-307-329-307H370v617" id="v"/><path d="M784 20c-382 0-662-292-662-764 0-473 280-766 662-766s660 293 660 766c0 472-278 764-660 764zm0-176c266 0 475-207 475-588 0-383-209-590-475-590-268 0-477 208-477 590 0 380 209 588 477 588" id="w"/><path d="M657 26c-323 0-524-166-541-416h195c15 169 171 246 346 246 202 0 356-106 356-265 5-203-294-238-475-293-239-73-380-191-380-389 0-252 224-419 512-419 294 0 499 171 508 396H992c-17-145-151-228-328-228-193 0-321 102-321 242 0 156 175 211 284 241l149 41c160 44 422 134 422 412 0 244-197 432-541 432" id="x"/><path d="M98-1322v-168h1126v168H757V0H567v-1322H98" id="y"/><g id="e"><use transform="matrix(0.010850694444444444,0,0,0.010850694444444444,0,0)" xlink:href="#v"/><use transform="matrix(0.010850694444444444,0,0,0.010850694444444444,14.192708333333332,0)" xlink:href="#w"/><use transform="matrix(0.010850694444444444,0,0,0.010850694444444444,31.184895833333332,0)" xlink:href="#x"/><use transform="matrix(0.010850694444444444,0,0,0.010850694444444444,45.44270833333333,0)" xlink:href="#y"/></g><path fill="#cc4e00" d="M620 201V20C297 2 93-164 85-462h297c9 133 104 207 238 223v-394l-92-23c-252-61-403-188-403-405 0-251 205-424 495-447v-183h120v183c299 19 491 196 496 443H941c-10-104-83-169-201-185v373c274 53 520 177 516 453 0 256-190 426-516 444v181H620zm120-441c128-17 209-88 209-186 0-92-76-139-209-176v362zM620-908v-341c-117 17-182 83-182 168 0 94 80 142 182 173" id="z"/><path fill="#cc4e00" d="M443 0L31-1118h319c90 293 199 572 268 885 66-313 175-593 264-885h315L784 0H443" id="A"/><path fill="#cc4e00" d="M440 22C227 22 68-92 68-313c0-250 202-322 422-343 195-21 271-24 271-105 0-95-63-149-175-149-116 0-187 57-211 129l-275-46c57-194 237-305 487-305 240 0 474 108 474 379V0H777v-155h-10C713-51 605 22 440 22zm85-211c140 0 238-93 238-211v-121c-37 26-156 42-222 51-111 16-185 59-185 149 0 87 70 132 169 132" id="B"/><path fill="#cc4e00" d="M428-1490V0H128v-1490h300" id="C"/><path fill="#cc4e00" d="M128 0v-1118h300V0H128zm150-1264c-91 0-165-68-165-154 0-85 74-154 165-154 90 0 165 69 165 154 0 86-75 154-165 154" id="D"/><path fill="#cc4e00" d="M537 19C279 19 81-185 81-557c0-382 206-575 454-575 190 0 278 113 318 202h10v-560h300V0H868v-179h-15C812-89 719 19 537 19zm92-241c153 0 240-134 240-336 0-203-86-334-240-334-158 0-240 138-240 334 0 197 84 336 240 336" id="E"/><path fill="#cc4e00" d="M683-1118v229H474v562c0 71 29 104 102 104 23 0 73-7 95-13l43 225C647 9 580 16 520 16 296 16 174-96 174-301v-588H20v-229h154v-266h300v266h209" id="F"/><path fill="#cc4e00" d="M633 22C291 22 81-200 81-553c0-345 210-579 537-579 292 0 525 185 525 567v84H378c7 183 109 277 260 277 105 0 184-46 216-132l272 51C1071-99 893 22 633 22zM380-669h474c-15-146-94-237-233-237-143 0-229 99-241 237" id="G"/><g id="f"><use transform="matrix(0.010850694444444444,0,0,0.010850694444444444,0,0)" xlink:href="#z"/><use transform="matrix(0.010850694444444444,0,0,0.010850694444444444,14.55078125,0)" xlink:href="#A"/><use transform="matrix(0.010850694444444444,0,0,0.010850694444444444,27.65842013888889,0)" xlink:href="#B"/><use transform="matrix(0.010850694444444444,0,0,0.010850694444444444,40.55989583333333,0)" xlink:href="#C"/><use transform="matrix(0.010850694444444444,0,0,0.010850694444444444,46.582031249999986,0)" xlink:href="#D"/><use transform="matrix(0.010850694444444444,0,0,0.010850694444444444,52.60416666666666,0)" xlink:href="#E"/><use transform="matrix(0.010850694444444444,0,0,0.010850694444444444,66.61241319444443,0)" xlink:href="#B"/><use transform="matrix(0.010850694444444444,0,0,0.010850694444444444,79.51388888888887,0)" xlink:href="#F"/><use transform="matrix(0.010850694444444444,0,0,0.010850694444444444,87.43489583333331,0)" xlink:href="#G"/></g><use transform="matrix(0.010850694444444444,0,0,0.010850694444444444,0,0)" xlink:href="#k" id="g"/><use transform="matrix(0.010850694444444444,0,0,0.010850694444444444,0,0)" xlink:href="#q" id="h"/><path fill="#333" d="M124 0v-220l528-495c135-132 210-216 210-336 0-133-98-215-231-215-139 0-229 88-229 233H110c0-290 214-477 523-477 315 0 525 182 525 440 0 167-80 305-385 586L548-262v11h630V0H124" id="H"/><path fill="#333" d="M690 20C314 20 94-261 94-744c0-482 221-766 596-766 376 0 597 284 597 766 0 483-219 764-597 764zm0-253c184 0 286-184 286-511 0-328-102-514-286-514-183 0-285 187-285 514s101 511 285 511" id="I"/><g id="i"><use transform="matrix(0.008680555555555556,0,0,0.008680555555555556,0,0)" xlink:href="#H"/><use transform="matrix(0.008680555555555556,0,0,0.008680555555555556,11.197916666666668,0)" xlink:href="#I"/><use transform="matrix(0.008680555555555556,0,0,0.008680555555555556,23.185763888888893,0)" xlink:href="#I"/></g><path fill="#333" d="M789 20C394 20 94-260 94-744c0-487 300-766 695-766s695 279 695 766c0 485-300 764-695 764zm0-271c231 0 385-174 385-493 0-321-154-495-385-495s-385 175-385 495c0 319 154 493 385 493" id="J"/><path fill="#333" d="M135 0v-1490h305c1 251 0 501-5 746 157-254 405-512 598-746h373L849-845 1422 0h-361L638-644 440-426V0H135" id="K"/><g id="j"><use transform="matrix(0.008680555555555556,0,0,0.008680555555555556,0,0)" xlink:href="#J"/><use transform="matrix(0.008680555555555556,0,0,0.008680555555555556,13.697916666666668,0)" xlink:href="#K"/></g></defs></g></svg>