<svg xmlns="http://www.w3.org/2000/svg" xmlns:xlink="http://www.w3.org/1999/xlink" xmlns:lucid="lucid" width="992" height="1202"><g transform="translate(101.33333333333326 245)" lucid:page-tab-id="0_0"><path d="M279.67-236a8 8 0 0 1 8-8h204a8 8 0 0 1 8 8v104a8 8 0 0 1-8 8h-204a8 8 0 0 1-8-8z" stroke="#000" stroke-width="2" fill="#fff"/><use xlink:href="#a" transform="matrix(1,0,0,1,291.66666666666674,-232) translate(31.22010633680557 24.74305555555555)"/><use xlink:href="#b" transform="matrix(1,0,0,1,291.66666666666674,-232) translate(114.8059353298611 24.74305555555555)"/><use xlink:href="#c" transform="matrix(1,0,0,1,291.66666666666674,-232) translate(43.02864583333334 57.331336805555544)"/><use xlink:href="#d" transform="matrix(1,0,0,1,291.66666666666674,-232) translate(138.51616753472223 57.331336805555544)"/><use xlink:href="#e" transform="matrix(1,0,0,1,291.66666666666674,-232) translate(22.9020724826389 89.91961805555553)"/><path d="M389.67-122.5v61.12" stroke="#3a414a" fill="none"/><path d="M390.14-122.5h-.95v-.5h.94z" stroke="#3a414a" stroke-width=".05" fill="#3a414a"/><path d="M389.67-46.62l-4.64-14.26h9.27z" stroke="#3a414a" fill="#3a414a"/><path d="M318.94-37.55A15.8 15.8 0 0 1 331.67-44h116a15.8 15.8 0 0 1 12.73 6.45l34.54 47.1a10.9 10.9 0 0 1 0 12.9l-34.54 47.1A15.8 15.8 0 0 1 447.67 76h-116a15.8 15.8 0 0 1-12.73-6.45l-34.54-47.1a10.9 10.9 0 0 1 0-12.9z" stroke="#000" stroke-width="2" fill="#fff"/><use xlink:href="#f" transform="matrix(1,0,0,1,291.66666666666674,-32) translate(72.19060112847222 24.74305555555555)"/><use xlink:href="#g" transform="matrix(1,0,0,1,291.66666666666674,-32) translate(22.9020724826389 57.331336805555544)"/><use xlink:href="#h" transform="matrix(1,0,0,1,291.66666666666674,-32) translate(75.00163628472222 89.91961805555553)"/><path d="M389.67 77.5v62.16" stroke="#3a414a" fill="none"/><path d="M390.14 77.5h-.95V77h.94z" stroke="#3a414a" stroke-width=".05" fill="#3a414a"/><path d="M389.67 154.42l-4.64-14.26h9.27z" stroke="#3a414a" fill="#3a414a"/><path d="M382.64 158.83a14.67 14.67 0 0 1 14.05 0l95.94 52.34a4.36 4.36 0 0 1 0 7.66l-95.95 52.34a14.67 14.67 0 0 1-14.06 0l-95.95-52.34a4.36 4.36 0 0 1 0-7.66z" stroke="#000" stroke-width="2" fill="#fff"/><use xlink:href="#i" transform="matrix(1,0,0,1,291.66666666666674,167.00004999999987) translate(57.11621961805556 36.74305555555555)"/><use xlink:href="#j" transform="matrix(1,0,0,1,291.66666666666674,167.00004999999987) translate(42.35417534722223 69.33133680555554)"/><path d="M-100.33 362a8 8 0 0 1 8-8h204a8 8 0 0 1 8 8v104a8 8 0 0 1-8 8h-204a8 8 0 0 1-8-8z" stroke="#008a0e" stroke-width="2" fill="#fff"/><use xlink:href="#k" transform="matrix(1,0,0,1,-88.33333333333326,366.00009999999975) translate(27.998101128472243 54.74305555555555)"/><use xlink:href="#l" transform="matrix(1,0,0,1,-88.33333333333326,366.00009999999975) translate(118.02794053819444 54.74305555555555)"/><path d="M53.32 215.47H21.68l-1.82.15-1.75.42-1.67.7-1.54.94-1.38 1.17-1.18 1.38-.94 1.54-.7 1.67-.4 1.76-.16 1.82v109.6H9.2V226.98l.14-1.93.46-1.9.75-1.8 1.02-1.68 1.27-1.5 1.5-1.26L16 215.9l1.8-.75 1.9-.45 1.95-.16h31.67zm229.6 0h-37.96v-.94h37.95z" stroke="#008a0e" stroke-width=".05" fill="#008a0e"/><path d="M283.4 215l.06.47h-.56v-.94h.56z" fill="#008a0e"/><path stroke="#008a0e" stroke-width=".05" fill="#008a0e"/><path d="M9.67 351.38l-4.64-14.26h9.27z" fill="#008a0e"/><path d="M9.67 352.92l-5.3-16.28h10.6zm-4-15.33l4 12.25 3.98-12.26z" stroke="#008a0e" stroke-width=".05" fill="#008a0e"/><use xlink:href="#m" transform="matrix(1,0,0,1,53.317727323779394,201.42159947916653) translate(0.0049999999999954525 21.74305555555555)"/><use xlink:href="#n" transform="matrix(1,0,0,1,53.317727323779394,201.42159947916653) translate(29.79210937499999 21.74305555555555)"/><use xlink:href="#o" transform="matrix(1,0,0,1,53.317727323779394,201.42159947916653) translate(141.67459635416662 21.74305555555555)"/><path d="M784.62 214.68l1.9.45 1.8.75 1.68 1.03 1.5 1.28 1.26 1.5 1.02 1.66.75 1.8.46 1.9.14 1.94v109.64h-.95v-109.6l-.15-1.82-.42-1.76-.7-1.67-.94-1.54-1.18-1.38-1.38-1.17-1.54-.95-1.67-.7-1.76-.4-1.82-.16h-67.73v-.94h67.76zm-288.2.8v-.95h42.95v.94z" stroke="#fc9432" stroke-width=".05" fill="#fc9432"/><path d="M496.44 215.47h-.57l.05-.47-.05-.47h.57z" fill="#fc9432"/><path stroke="#fc9432" stroke-width=".05" fill="#fc9432"/><path d="M794.67 351.38l-4.64-14.26h9.27z" fill="#fc9432"/><path d="M794.67 352.92l-5.3-16.28h10.6zm-4-15.33l4 12.25 3.98-12.26z" stroke="#fc9432" stroke-width=".05" fill="#fc9432"/><use xlink:href="#p" transform="matrix(1,0,0,1,539.3656709339386,201.42159947916653) translate(0.0049999999999954525 21.74305555555555)"/><use xlink:href="#q" transform="matrix(1,0,0,1,539.3656709339386,201.42159947916653) translate(69.99046006944442 21.74305555555555)"/><path d="M699.67 362a8 8 0 0 1 8-8h174a8 8 0 0 1 8 8v104a8 8 0 0 1-8 8h-174a8 8 0 0 1-8-8z" stroke="#cc4e00" stroke-width="2" fill="#fff"/><use xlink:href="#k" transform="matrix(1,0,0,1,711.6666666666667,366.00009999999975) translate(12.998101128472243 54.74305555555555)"/><use xlink:href="#l" transform="matrix(1,0,0,1,711.6666666666667,366.00009999999975) translate(103.02794053819444 54.74305555555555)"/><path d="M390.14 398.62h-.95V337.2h.94zm0-88.58h-.95v-35.58h.94z" stroke="#008a0e" stroke-width=".05" fill="#008a0e"/><path d="M389.67 273.96l.47-.02v.53h-.95v-.53z" fill="#008a0e"/><path stroke="#008a0e" stroke-width=".05" fill="#008a0e"/><path d="M389.67 413.38l-4.64-14.26h9.27z" fill="#008a0e"/><path d="M389.67 414.92l-5.3-16.28h10.6zm-4-15.33l4 12.25 3.98-12.26z" stroke="#008a0e" stroke-width=".05" fill="#008a0e"/><use xlink:href="#m" transform="matrix(1,0,0,1,281.58702256944457,310.0424801031857) translate(0.0049999999999954525 21.74305555555555)"/><use xlink:href="#n" transform="matrix(1,0,0,1,281.58702256944457,310.0424801031857) translate(29.79210937499999 21.74305555555555)"/><use xlink:href="#r" transform="matrix(1,0,0,1,281.58702256944457,310.0424801031857) translate(141.67459635416662 21.74305555555555)"/><path d="M279.67 424a8 8 0 0 1 8-8h204a8 8 0 0 1 8 8v104a8 8 0 0 1-8 8h-204a8 8 0 0 1-8-8z" stroke="#008a0e" stroke-width="2" fill="#fff"/><use xlink:href="#k" transform="matrix(1,0,0,1,291.66666666666674,428) translate(15.740234375000028 54.74305555555555)"/><use xlink:href="#s" transform="matrix(1,0,0,1,291.66666666666674,428) translate(105.77007378472223 54.74305555555555)"/><path d="M794.67 475.5v125.43" stroke="#fc9432" fill="none"/><path d="M795.14 475.5h-.95v-.5h.94z" stroke="#fc9432" stroke-width=".05" fill="#fc9432"/><path d="M794.67 615.7l-4.64-14.27h9.27z" stroke="#fc9432" fill="#fc9432"/><path d="M787.9 620.27a12.67 12.67 0 0 1 13.53 0l81.47 51.46a5.05 5.05 0 0 1 0 8.54l-81.47 51.46a12.67 12.67 0 0 1-13.53 0l-81.47-51.46a5.05 5.05 0 0 1 0-8.54z" stroke="#cc4e00" stroke-width="2" fill="#fff"/><use xlink:href="#t" transform="matrix(1,0,0,1,711.6666666666667,628) translate(33.49680772569445 54.74305555555555)"/><path d="M575.15 676.48h-73.1v-.96h73.1zm127.42 0H613.6v-.96h88.97z" stroke="#3a414a" stroke-width=".05" fill="#3a414a"/><path d="M703.07 676l.05.48h-.56v-.96h.56z" fill="#3a414a"/><path stroke="#3a414a" stroke-width=".05" fill="#3a414a"/><path d="M501.55 680.63L487.3 676l14.25-4.63z" fill="#3a414a"/><path d="M502.03 681.3l-16.28-5.3 16.28-5.3zm-13.2-5.3l12.25 3.98v-7.96z" stroke="#3a414a" stroke-width=".05" fill="#3a414a"/><use xlink:href="#u" transform="matrix(1,0,0,1,575.1466904565925,662.4215494791666) translate(0.004999999999999005 21.74305555555555)"/><path d="M444.67 636c22.1 0 40 17.9 40 40s-17.9 40-40 40h-110c-22.1 0-40-17.9-40-40s17.9-40 40-40z" stroke="#000" stroke-width="2" fill="#e3fae3"/><use xlink:href="#v" transform="matrix(1,0,0,1,306.66666666666674,648) translate(33.79866536458334 35.74305555555555)"/><path d="M9.67 475.5V664a12 12 0 0 0 12 12h255.6" stroke="#008a0e" fill="none"/><path d="M10.14 475.5H9.2v-.5h.94z" stroke="#008a0e" stroke-width=".05" fill="#008a0e"/><path d="M292.05 676l-14.27 4.63v-9.26z" stroke="#008a0e" fill="#008a0e"/><path d="M389.67 537.5v81.12" stroke="#3a414a" fill="none"/><path d="M390.14 537.5h-.95v-.5h.94z" stroke="#3a414a" stroke-width=".05" fill="#3a414a"/><path d="M389.67 633.38l-4.64-14.26h9.27z" stroke="#3a414a" fill="#3a414a"/><path d="M795.14 818.62h-.95v-29.37h.94zm0-56.53h-.95v-26.9h.94z" stroke="#fc9432" stroke-width=".05" fill="#fc9432"/><path d="M794.67 734.7l.47-.04v.54h-.95v-.54z" fill="#fc9432"/><path stroke="#fc9432" stroke-width=".05" fill="#fc9432"/><path d="M794.67 833.38l-4.64-14.26h9.27z" fill="#fc9432"/><path d="M794.67 834.92l-5.3-16.28h10.6zm-4-15.33l4 12.25 3.98-12.26z" stroke="#fc9432" stroke-width=".05" fill="#fc9432"/><g><use xlink:href="#w" transform="matrix(1,0,0,1,779.4826931423612,762.0903229777076) translate(0.005000000000000782 21.74305555555555)"/></g><path d="M439.67 844a8 8 0 0 1 8-8h174a8 8 0 0 1 8 8v104a8 8 0 0 1-8 8h-174a8 8 0 0 1-8-8z" stroke="#cc4e00" stroke-width="2" fill="#fff"/><g><use xlink:href="#k" transform="matrix(1,0,0,1,451.66666666666674,848) translate(0.7402343750000284 54.74305555555555)"/><use xlink:href="#s" transform="matrix(1,0,0,1,451.66666666666674,848) translate(90.77007378472223 54.74305555555555)"/></g><path d="M438.17 896h-36.5a12 12 0 0 1-12-12V733.38" stroke="#cc4e00" fill="none"/><path d="M438.67 896.48h-.52v-.96h.52z" stroke="#cc4e00" stroke-width=".05" fill="#cc4e00"/><path d="M389.67 718.62l4.63 14.26h-9.27z" stroke="#cc4e00" fill="#cc4e00"/><path d="M714.67 844a8 8 0 0 1 8-8h144a8 8 0 0 1 8 8v104a8 8 0 0 1-8 8h-144a8 8 0 0 1-8-8z" stroke="#cc4e00" stroke-width="2" fill="#fff"/><g><use xlink:href="#x" transform="matrix(1,0,0,1,726.6666666666667,848) translate(10.349121093750014 54.74305555555555)"/><use xlink:href="#y" transform="matrix(1,0,0,1,726.6666666666667,848) translate(63.83002387152778 54.74305555555555)"/></g><path d="M713.17 896h-66.12" stroke="#cc4e00" fill="none"/><path d="M713.67 896.48h-.52v-.96h.52z" stroke="#cc4e00" stroke-width=".05" fill="#cc4e00"/><path d="M632.3 896l14.25-4.63v9.26z" stroke="#cc4e00" fill="#cc4e00"/><defs><path d="M158 0v-1118h174v172h12c41-113 157-188 290-188 26 0 70 2 91 3v181c-11-2-60-10-108-10-161 0-279 109-279 260V0H158" id="z"/><path d="M628 24c-324 0-524-230-524-574 0-343 198-582 503-582 237 0 487 146 487 559v75H286c9 234 145 362 343 362 132 0 231-58 273-172l174 48C1024-91 857 24 628 24zM287-650h624c-17-190-120-322-304-322-192 0-309 151-320 322" id="A"/><path d="M538 24C308 24 148-78 108-271l171-41c32 123 123 178 257 178 156 0 256-77 256-169 0-77-54-128-164-154l-186-44c-203-48-300-148-300-305 0-192 176-326 414-326 230 0 351 112 402 269l-163 42c-31-80-94-158-238-158-133 0-233 69-233 162 0 83 57 129 188 160l169 40c203 48 298 149 298 302 0 196-179 339-441 339" id="B"/><path d="M613 24c-304 0-509-231-509-576 0-350 205-580 509-580 305 0 511 230 511 580 0 345-206 576-511 576zm0-161c226 0 329-195 329-415 0-222-103-419-329-419-223 0-326 196-326 419 0 220 103 415 326 415" id="C"/><path d="M338-1490V0H158v-1490h180" id="D"/><path d="M481 0L54-1118h197c107 314 236 620 325 951 87-331 217-637 324-951h197L670 0H481" id="E"/><g id="a"><use transform="matrix(0.010959201388888886,0,0,0.010959201388888886,0,0)" xlink:href="#z"/><use transform="matrix(0.010959201388888886,0,0,0.010959201388888886,8.07693142361111,0)" xlink:href="#A"/><use transform="matrix(0.010959201388888886,0,0,0.010959201388888886,21.162217881944443,0)" xlink:href="#B"/><use transform="matrix(0.010959201388888886,0,0,0.010959201388888886,33.00911458333333,0)" xlink:href="#C"/><use transform="matrix(0.010959201388888886,0,0,0.010959201388888886,46.46701388888888,0)" xlink:href="#D"/><use transform="matrix(0.010959201388888886,0,0,0.010959201388888886,52.01236979166666,0)" xlink:href="#E"/><use transform="matrix(0.010959201388888886,0,0,0.010959201388888886,64.1880425347222,0)" xlink:href="#A"/></g><path d="M613 24c-304 0-509-231-509-576 0-350 205-580 509-580 216 0 392 114 453 309l-173 49c-33-115-133-197-280-197-223 0-326 196-326 419 0 220 103 415 326 415 150 0 252-85 285-206l172 49C1010-95 832 24 613 24" id="F"/><path d="M471 26C259 26 90-98 90-318c0-256 228-303 435-329 202-27 287-16 287-108 0-139-79-219-234-219-161 0-248 86-283 164l-173-57c86-203 278-265 451-265 150 0 419 46 419 395V0H815v-152h-12C765-73 660 26 471 26zm31-159c199 0 310-134 310-271v-155c-30 35-226 55-295 64-131 17-246 59-246 186 0 116 97 176 231 176" id="G"/><g id="b"><use transform="matrix(0.010959201388888886,0,0,0.010959201388888886,0,0)" xlink:href="#D"/><use transform="matrix(0.010959201388888886,0,0,0.010959201388888886,5.4357638888888875,0)" xlink:href="#C"/><use transform="matrix(0.010959201388888886,0,0,0.010959201388888886,18.89366319444444,0)" xlink:href="#F"/><use transform="matrix(0.010959201388888886,0,0,0.010959201388888886,31.935112847222214,0)" xlink:href="#G"/><use transform="matrix(0.010959201388888886,0,0,0.010959201388888886,44.538194444444436,0)" xlink:href="#D"/></g><path d="M537 14c-226 0-379-139-379-422v-710h180v695c0 172 97 275 253 275 160 0 281-109 281-300v-670h181V0H879v-209C806-46 684 14 537 14" id="H"/><path d="M598-1118v154H368v674c0 100 37 144 132 144 23 0 62-6 92-12L629-6c-37 13-88 20-134 20-193 0-307-107-307-290v-688H20v-154h168v-266h180v266h230" id="I"/><g id="c"><use transform="matrix(0.010959201388888886,0,0,0.010959201388888886,0,0)" xlink:href="#E"/><use transform="matrix(0.010959201388888886,0,0,0.010959201388888886,12.50444878472222,0)" xlink:href="#G"/><use transform="matrix(0.010959201388888886,0,0,0.010959201388888886,25.10753038194444,0)" xlink:href="#D"/><use transform="matrix(0.010959201388888886,0,0,0.010959201388888886,30.543294270833325,0)" xlink:href="#H"/><use transform="matrix(0.010959201388888886,0,0,0.010959201388888886,43.81488715277777,0)" xlink:href="#A"/><use transform="matrix(0.010959201388888886,0,0,0.010959201388888886,56.9001736111111,0)" xlink:href="#B"/><use transform="matrix(0.010959201388888886,0,0,0.010959201388888886,68.74707031249999,0)" xlink:href="#A"/><use transform="matrix(0.010959201388888886,0,0,0.010959201388888886,81.83235677083331,0)" xlink:href="#I"/></g><path d="M580 20c-295 0-476-179-476-409 0-189 123-290 294-416-104-125-173-226-173-362 0-197 144-337 365-337 224 0 362 144 362 321 0 185-174 312-306 405l319 387c38-75 61-165 61-267h173c0 208-62 332-120 406L1287 0h-217L967-124C868-27 716 20 580 20zm279-273L507-675l-51 38c-123 91-167 162-167 254 0 147 113 246 278 246 107 0 210-41 292-116zM538-908l97-72c54-40 136-101 136-206 0-95-68-163-176-163-113 0-189 74-189 181 0 90 53 164 132 260" id="J"/><use transform="matrix(0.010959201388888886,0,0,0.010959201388888886,0,0)" xlink:href="#J" id="d"/><path d="M577 24c-279 0-473-224-473-580 0-354 195-576 474-576 218 0 287 134 324 193h14v-551h180V0H922v-173h-20C865-111 790 24 577 24zm27-161c203 0 314-172 314-421 0-247-108-413-314-413-212 0-317 181-317 413 0 235 108 421 317 421" id="K"/><path d="M158 418v-1536h174v179h20c37-59 106-193 324-193 279 0 474 222 474 576 0 356-194 580-473 580-213 0-288-135-325-197h-14v591H158zm492-555c209 0 317-186 317-421 0-232-105-413-317-413-206 0-314 166-314 413 0 249 111 421 314 421" id="L"/><path d="M338-670V0H158v-1118h173l1 207c72-158 192-221 342-221 226 0 378 139 378 422V0H872v-695c0-172-96-275-252-275-161 0-282 109-282 300" id="M"/><path d="M158 0v-1118h180V0H158zm91-1301c-68 0-125-53-125-119s57-119 125-119c69 0 126 53 126 119s-57 119-126 119" id="N"/><g id="e"><use transform="matrix(0.010959201388888886,0,0,0.010959201388888886,0,0)" xlink:href="#K"/><use transform="matrix(0.010959201388888886,0,0,0.010959201388888886,13.742838541666664,0)" xlink:href="#A"/><use transform="matrix(0.010959201388888886,0,0,0.010959201388888886,26.828124999999993,0)" xlink:href="#L"/><use transform="matrix(0.010959201388888886,0,0,0.010959201388888886,40.57096354166666,0)" xlink:href="#A"/><use transform="matrix(0.010959201388888886,0,0,0.010959201388888886,53.656249999999986,0)" xlink:href="#M"/><use transform="matrix(0.010959201388888886,0,0,0.010959201388888886,66.91688368055554,0)" xlink:href="#K"/><use transform="matrix(0.010959201388888886,0,0,0.010959201388888886,80.6597222222222,0)" xlink:href="#A"/><use transform="matrix(0.010959201388888886,0,0,0.010959201388888886,93.74500868055553,0)" xlink:href="#M"/><use transform="matrix(0.010959201388888886,0,0,0.010959201388888886,107.00564236111109,0)" xlink:href="#F"/><use transform="matrix(0.010959201388888886,0,0,0.010959201388888886,119.82790798611109,0)" xlink:href="#N"/><use transform="matrix(0.010959201388888886,0,0,0.010959201388888886,125.26367187499997,0)" xlink:href="#A"/><use transform="matrix(0.010959201388888886,0,0,0.010959201388888886,138.34895833333331,0)" xlink:href="#B"/></g><path d="M677 24c-213 0-288-135-325-197h-20V0H158v-1490h180v551h14c37-59 106-193 324-193 279 0 474 222 474 576 0 356-194 580-473 580zm-27-161c209 0 317-186 317-421 0-232-105-413-317-413-206 0-314 166-314 413 0 249 111 421 314 421" id="O"/><g id="f"><use transform="matrix(0.010959201388888886,0,0,0.010959201388888886,0,0)" xlink:href="#O"/><use transform="matrix(0.010959201388888886,0,0,0.010959201388888886,13.742838541666664,0)" xlink:href="#H"/><use transform="matrix(0.010959201388888886,0,0,0.010959201388888886,27.014431423611104,0)" xlink:href="#N"/><use transform="matrix(0.010959201388888886,0,0,0.010959201388888886,32.45019531249999,0)" xlink:href="#D"/><use transform="matrix(0.010959201388888886,0,0,0.010959201388888886,37.88595920138888,0)" xlink:href="#K"/></g><g id="g"><use transform="matrix(0.010959201388888886,0,0,0.010959201388888886,0,0)" xlink:href="#K"/><use transform="matrix(0.010959201388888886,0,0,0.010959201388888886,13.742838541666664,0)" xlink:href="#A"/><use transform="matrix(0.010959201388888886,0,0,0.010959201388888886,26.828124999999993,0)" xlink:href="#L"/><use transform="matrix(0.010959201388888886,0,0,0.010959201388888886,40.57096354166666,0)" xlink:href="#A"/><use transform="matrix(0.010959201388888886,0,0,0.010959201388888886,53.656249999999986,0)" xlink:href="#M"/><use transform="matrix(0.010959201388888886,0,0,0.010959201388888886,66.91688368055554,0)" xlink:href="#K"/><use transform="matrix(0.010959201388888886,0,0,0.010959201388888886,80.6597222222222,0)" xlink:href="#A"/><use transform="matrix(0.010959201388888886,0,0,0.010959201388888886,93.74500868055553,0)" xlink:href="#M"/><use transform="matrix(0.010959201388888886,0,0,0.010959201388888886,107.00564236111109,0)" xlink:href="#F"/><use transform="matrix(0.010959201388888886,0,0,0.010959201388888886,119.82790798611109,0)" xlink:href="#N"/><use transform="matrix(0.010959201388888886,0,0,0.010959201388888886,125.26367187499997,0)" xlink:href="#A"/><use transform="matrix(0.010959201388888886,0,0,0.010959201388888886,138.34895833333331,0)" xlink:href="#B"/></g><path d="M158 0v-1118h175l1 205c55-151 181-225 313-225 147 0 245 90 285 228 53-141 190-228 352-228 194 0 352 125 352 384V0h-181v-749c0-161-105-225-225-225-151 0-243 103-243 244V0H807v-767c0-124-93-207-219-207-131 0-250 92-250 270V0H158" id="P"/><g id="h"><use transform="matrix(0.010959201388888886,0,0,0.010959201388888886,0,0)" xlink:href="#P"/><use transform="matrix(0.010959201388888886,0,0,0.010959201388888886,19.66080729166666,0)" xlink:href="#G"/><use transform="matrix(0.010959201388888886,0,0,0.010959201388888886,32.26388888888888,0)" xlink:href="#L"/></g><path fill="#3a414a" d="M471 26C259 26 90-98 90-318c0-256 228-303 435-329 202-27 287-16 287-108 0-139-79-219-234-219-161 0-248 86-283 164l-173-57c86-203 278-265 451-265 150 0 419 46 419 395V0H815v-152h-12C765-73 660 26 471 26zm31-159c199 0 310-134 310-271v-155c-30 35-226 55-295 64-131 17-246 59-246 186 0 116 97 176 231 176" id="Q"/><path fill="#3a414a" d="M338-670V0H158v-1118h173l1 207c72-158 192-221 342-221 226 0 378 139 378 422V0H872v-695c0-172-96-275-252-275-161 0-282 109-282 300" id="R"/><path fill="#3a414a" d="M338-1490V0H158v-1490h180" id="S"/><path fill="#3a414a" d="M140 405l46-156c120 36 205 19 263-150l32-93L54-1118h197c107 313 237 620 324 950 87-331 219-637 326-950h196L606 167c-68 178-176 259-334 259-64 0-113-12-132-21" id="T"/><path fill="#3a414a" d="M126 0v-134l627-806v-11H146v-167h839v143L376-178v11h629V0H126" id="U"/><path fill="#3a414a" d="M628 24c-324 0-524-230-524-574 0-343 198-582 503-582 237 0 487 146 487 559v75H286c9 234 145 362 343 362 132 0 231-58 273-172l174 48C1024-91 857 24 628 24zM287-650h624c-17-190-120-322-304-322-192 0-309 151-320 322" id="V"/><g id="i"><use transform="matrix(0.010959201388888886,0,0,0.010959201388888886,0,0)" xlink:href="#Q"/><use transform="matrix(0.010959201388888886,0,0,0.010959201388888886,12.60308159722222,0)" xlink:href="#R"/><use transform="matrix(0.010959201388888886,0,0,0.010959201388888886,25.86371527777777,0)" xlink:href="#Q"/><use transform="matrix(0.010959201388888886,0,0,0.010959201388888886,38.46679687499999,0)" xlink:href="#S"/><use transform="matrix(0.010959201388888886,0,0,0.010959201388888886,44.012152777777764,0)" xlink:href="#T"/><use transform="matrix(0.010959201388888886,0,0,0.010959201388888886,56.62619357638888,0)" xlink:href="#U"/><use transform="matrix(0.010959201388888886,0,0,0.010959201388888886,68.69227430555554,0)" xlink:href="#V"/></g><path fill="#3a414a" d="M481 0L54-1118h197c107 314 236 620 325 951 87-331 217-637 324-951h197L670 0H481" id="W"/><path fill="#3a414a" d="M158 0v-1118h180V0H158zm91-1301c-68 0-125-53-125-119s57-119 125-119c69 0 126 53 126 119s-57 119-126 119" id="X"/><path fill="#3a414a" d="M677 24c-213 0-288-135-325-197h-20V0H158v-1490h180v551h14c37-59 106-193 324-193 279 0 474 222 474 576 0 356-194 580-473 580zm-27-161c209 0 317-186 317-421 0-232-105-413-317-413-206 0-314 166-314 413 0 249 111 421 314 421" id="Y"/><path fill="#3a414a" d="M598-1118v154H368v674c0 100 37 144 132 144 23 0 62-6 92-12L629-6c-37 13-88 20-134 20-193 0-307-107-307-290v-688H20v-154h168v-266h180v266h230" id="Z"/><g id="j"><use transform="matrix(0.010959201388888886,0,0,0.010959201388888886,0,0)" xlink:href="#Q"/><use transform="matrix(0.010959201388888886,0,0,0.010959201388888886,12.274305555555554,0)" xlink:href="#W"/><use transform="matrix(0.010959201388888886,0,0,0.010959201388888886,24.77875434027777,0)" xlink:href="#Q"/><use transform="matrix(0.010959201388888886,0,0,0.010959201388888886,37.38183593749999,0)" xlink:href="#X"/><use transform="matrix(0.010959201388888886,0,0,0.010959201388888886,42.81759982638888,0)" xlink:href="#S"/><use transform="matrix(0.010959201388888886,0,0,0.010959201388888886,48.253363715277764,0)" xlink:href="#Q"/><use transform="matrix(0.010959201388888886,0,0,0.010959201388888886,60.856445312499986,0)" xlink:href="#Y"/><use transform="matrix(0.010959201388888886,0,0,0.010959201388888886,74.59928385416666,0)" xlink:href="#X"/><use transform="matrix(0.010959201388888886,0,0,0.010959201388888886,80.03504774305554,0)" xlink:href="#S"/><use transform="matrix(0.010959201388888886,0,0,0.010959201388888886,85.47081163194443,0)" xlink:href="#X"/><use transform="matrix(0.010959201388888886,0,0,0.010959201388888886,90.90657552083331,0)" xlink:href="#Z"/><use transform="matrix(0.010959201388888886,0,0,0.010959201388888886,98.68760850694443,0)" xlink:href="#T"/></g><path fill="#3a414a" d="M65 0l393-574-370-544h210c88 136 192 297 267 435 67-142 176-302 264-435h206L661-564 1053 0H844c-94-144-206-310-287-458C484-308 366-142 273 0H65" id="aa"/><path fill="#3a414a" d="M613 24c-304 0-509-231-509-576 0-350 205-580 509-580 216 0 392 114 453 309l-173 49c-33-115-133-197-280-197-223 0-326 196-326 419 0 220 103 415 326 415 150 0 252-85 285-206l172 49C1010-95 832 24 613 24" id="ab"/><path fill="#3a414a" d="M537 14c-226 0-379-139-379-422v-710h180v695c0 172 97 275 253 275 160 0 281-109 281-300v-670h181V0H879v-209C806-46 684 14 537 14" id="ac"/><g id="k"><use transform="matrix(0.010959201388888886,0,0,0.010959201388888886,0,0)" xlink:href="#V"/><use transform="matrix(0.010959201388888886,0,0,0.010959201388888886,12.581163194444441,0)" xlink:href="#aa"/><use transform="matrix(0.010959201388888886,0,0,0.010959201388888886,24.32942708333333,0)" xlink:href="#V"/><use transform="matrix(0.010959201388888886,0,0,0.010959201388888886,37.41471354166666,0)" xlink:href="#ab"/><use transform="matrix(0.010959201388888886,0,0,0.010959201388888886,50.23697916666666,0)" xlink:href="#ac"/><use transform="matrix(0.010959201388888886,0,0,0.010959201388888886,63.5085720486111,0)" xlink:href="#Z"/><use transform="matrix(0.010959201388888886,0,0,0.010959201388888886,70.63205295138887,0)" xlink:href="#V"/></g><path fill="#3a414a" d="M613 24c-304 0-509-231-509-576 0-350 205-580 509-580 305 0 511 230 511 580 0 345-206 576-511 576zm0-161c226 0 329-195 329-415 0-222-103-419-329-419-223 0-326 196-326 419 0 220 103 415 326 415" id="ad"/><g id="l"><use transform="matrix(0.010959201388888886,0,0,0.010959201388888886,0,0)" xlink:href="#S"/><use transform="matrix(0.010959201388888886,0,0,0.010959201388888886,5.4357638888888875,0)" xlink:href="#ad"/><use transform="matrix(0.010959201388888886,0,0,0.010959201388888886,18.89366319444444,0)" xlink:href="#ab"/><use transform="matrix(0.010959201388888886,0,0,0.010959201388888886,31.935112847222214,0)" xlink:href="#Q"/><use transform="matrix(0.010959201388888886,0,0,0.010959201388888886,44.538194444444436,0)" xlink:href="#S"/></g><g id="m"><use transform="matrix(0.010959201388888886,0,0,0.010959201388888886,0,0)" xlink:href="#G"/><use transform="matrix(0.010959201388888886,0,0,0.010959201388888886,12.60308159722222,0)" xlink:href="#D"/><use transform="matrix(0.010959201388888886,0,0,0.010959201388888886,18.038845486111107,0)" xlink:href="#D"/></g><g id="n"><use transform="matrix(0.010959201388888886,0,0,0.010959201388888886,0,0)" xlink:href="#z"/><use transform="matrix(0.010959201388888886,0,0,0.010959201388888886,8.07693142361111,0)" xlink:href="#A"/><use transform="matrix(0.010959201388888886,0,0,0.010959201388888886,21.162217881944443,0)" xlink:href="#B"/><use transform="matrix(0.010959201388888886,0,0,0.010959201388888886,33.00911458333333,0)" xlink:href="#C"/><use transform="matrix(0.010959201388888886,0,0,0.010959201388888886,46.46701388888888,0)" xlink:href="#H"/><use transform="matrix(0.010959201388888886,0,0,0.010959201388888886,59.73860677083332,0)" xlink:href="#z"/><use transform="matrix(0.010959201388888886,0,0,0.010959201388888886,67.81553819444443,0)" xlink:href="#F"/><use transform="matrix(0.010959201388888886,0,0,0.010959201388888886,80.63780381944443,0)" xlink:href="#A"/><use transform="matrix(0.010959201388888886,0,0,0.010959201388888886,93.72309027777776,0)" xlink:href="#B"/></g><g id="o"><use transform="matrix(0.010959201388888886,0,0,0.010959201388888886,0,0)" xlink:href="#D"/><use transform="matrix(0.010959201388888886,0,0,0.010959201388888886,5.4357638888888875,0)" xlink:href="#C"/><use transform="matrix(0.010959201388888886,0,0,0.010959201388888886,18.89366319444444,0)" xlink:href="#F"/><use transform="matrix(0.010959201388888886,0,0,0.010959201388888886,31.935112847222214,0)" xlink:href="#G"/><use transform="matrix(0.010959201388888886,0,0,0.010959201388888886,44.538194444444436,0)" xlink:href="#D"/></g><path d="M65 0l393-574-370-544h210c88 136 192 297 267 435 67-142 176-302 264-435h206L661-564 1053 0H844c-94-144-206-310-287-458C484-308 366-142 273 0H65" id="ae"/><g id="p"><use transform="matrix(0.010959201388888886,0,0,0.010959201388888886,0,0)" xlink:href="#P"/><use transform="matrix(0.010959201388888886,0,0,0.010959201388888886,19.66080729166666,0)" xlink:href="#N"/><use transform="matrix(0.010959201388888886,0,0,0.010959201388888886,25.09657118055555,0)" xlink:href="#ae"/><use transform="matrix(0.010959201388888886,0,0,0.010959201388888886,36.844835069444436,0)" xlink:href="#A"/><use transform="matrix(0.010959201388888886,0,0,0.010959201388888886,49.930121527777764,0)" xlink:href="#K"/></g><g id="q"><use transform="matrix(0.010959201388888886,0,0,0.010959201388888886,0,0)" xlink:href="#z"/><use transform="matrix(0.010959201388888886,0,0,0.010959201388888886,8.07693142361111,0)" xlink:href="#A"/><use transform="matrix(0.010959201388888886,0,0,0.010959201388888886,21.162217881944443,0)" xlink:href="#B"/><use transform="matrix(0.010959201388888886,0,0,0.010959201388888886,33.00911458333333,0)" xlink:href="#C"/><use transform="matrix(0.010959201388888886,0,0,0.010959201388888886,46.46701388888888,0)" xlink:href="#H"/><use transform="matrix(0.010959201388888886,0,0,0.010959201388888886,59.73860677083332,0)" xlink:href="#z"/><use transform="matrix(0.010959201388888886,0,0,0.010959201388888886,67.81553819444443,0)" xlink:href="#F"/><use transform="matrix(0.010959201388888886,0,0,0.010959201388888886,80.63780381944443,0)" xlink:href="#A"/><use transform="matrix(0.010959201388888886,0,0,0.010959201388888886,93.72309027777776,0)" xlink:href="#B"/></g><g id="r"><use transform="matrix(0.010959201388888886,0,0,0.010959201388888886,0,0)" xlink:href="#z"/><use transform="matrix(0.010959201388888886,0,0,0.010959201388888886,8.07693142361111,0)" xlink:href="#A"/><use transform="matrix(0.010959201388888886,0,0,0.010959201388888886,21.162217881944443,0)" xlink:href="#P"/><use transform="matrix(0.010959201388888886,0,0,0.010959201388888886,40.8230251736111,0)" xlink:href="#C"/><use transform="matrix(0.010959201388888886,0,0,0.010959201388888886,54.28092447916666,0)" xlink:href="#I"/><use transform="matrix(0.010959201388888886,0,0,0.010959201388888886,61.40440538194443,0)" xlink:href="#A"/></g><path fill="#3a414a" d="M158 0v-1118h174v172h12c41-113 157-188 290-188 26 0 70 2 91 3v181c-11-2-60-10-108-10-161 0-279 109-279 260V0H158" id="af"/><path fill="#3a414a" d="M158 0v-1118h175l1 205c55-151 181-225 313-225 147 0 245 90 285 228 53-141 190-228 352-228 194 0 352 125 352 384V0h-181v-749c0-161-105-225-225-225-151 0-243 103-243 244V0H807v-767c0-124-93-207-219-207-131 0-250 92-250 270V0H158" id="ag"/><g id="s"><use transform="matrix(0.010959201388888886,0,0,0.010959201388888886,0,0)" xlink:href="#af"/><use transform="matrix(0.010959201388888886,0,0,0.010959201388888886,8.07693142361111,0)" xlink:href="#V"/><use transform="matrix(0.010959201388888886,0,0,0.010959201388888886,21.162217881944443,0)" xlink:href="#ag"/><use transform="matrix(0.010959201388888886,0,0,0.010959201388888886,40.8230251736111,0)" xlink:href="#ad"/><use transform="matrix(0.010959201388888886,0,0,0.010959201388888886,54.28092447916666,0)" xlink:href="#Z"/><use transform="matrix(0.010959201388888886,0,0,0.010959201388888886,61.40440538194443,0)" xlink:href="#V"/></g><path fill="#3a414a" d="M538 24C308 24 148-78 108-271l171-41c32 123 123 178 257 178 156 0 256-77 256-169 0-77-54-128-164-154l-186-44c-203-48-300-148-300-305 0-192 176-326 414-326 230 0 351 112 402 269l-163 42c-31-80-94-158-238-158-133 0-233 69-233 162 0 83 57 129 188 160l169 40c203 48 298 149 298 302 0 196-179 339-441 339" id="ah"/><path fill="#3a414a" d="M383-449c-3-277 82-343 222-425 88-53 156-134 156-250 0-139-108-227-243-227-118 0-235 70-246 236H82c10-251 200-395 436-395 259 0 427 165 427 393 0 161-74 273-203 352-132 80-180 132-178 316H383zm93 462c-75 0-135-60-135-134 0-75 60-135 135-135 74 0 134 60 134 135 0 74-60 134-134 134" id="ai"/><g id="t"><use transform="matrix(0.010959201388888886,0,0,0.010959201388888886,0,0)" xlink:href="#ah"/><use transform="matrix(0.010959201388888886,0,0,0.010959201388888886,11.846896701388886,0)" xlink:href="#ac"/><use transform="matrix(0.010959201388888886,0,0,0.010959201388888886,25.11848958333333,0)" xlink:href="#ab"/><use transform="matrix(0.010959201388888886,0,0,0.010959201388888886,37.94075520833333,0)" xlink:href="#ab"/><use transform="matrix(0.010959201388888886,0,0,0.010959201388888886,50.76302083333333,0)" xlink:href="#V"/><use transform="matrix(0.010959201388888886,0,0,0.010959201388888886,63.848307291666664,0)" xlink:href="#ah"/><use transform="matrix(0.010959201388888886,0,0,0.010959201388888886,75.69520399305554,0)" xlink:href="#ah"/><use transform="matrix(0.010959201388888886,0,0,0.010959201388888886,87.54210069444443,0)" xlink:href="#ai"/></g><path fill="#3a414a" d="M600 0v-610L52-1490h220l295 481c50 82 90 150 130 243 40-96 80-164 128-243l294-481h219L790-610V0H600" id="aj"/><g id="u"><use transform="matrix(0.010959201388888886,0,0,0.010959201388888886,0,0)" xlink:href="#aj"/><use transform="matrix(0.010959201388888886,0,0,0.010959201388888886,13.512695312499996,0)" xlink:href="#V"/><use transform="matrix(0.010959201388888886,0,0,0.010959201388888886,26.59798177083333,0)" xlink:href="#ah"/></g><path fill="#3a414a" d="M158 418v-1536h174v179h20c37-59 106-193 324-193 279 0 474 222 474 576 0 356-194 580-473 580-213 0-288-135-325-197h-14v591H158zm492-555c209 0 317-186 317-421 0-232-105-413-317-413-206 0-314 166-314 413 0 249 111 421 314 421" id="ak"/><g id="v"><use transform="matrix(0.010959201388888886,0,0,0.010959201388888886,0,0)" xlink:href="#af"/><use transform="matrix(0.010959201388888886,0,0,0.010959201388888886,8.07693142361111,0)" xlink:href="#V"/><use transform="matrix(0.010959201388888886,0,0,0.010959201388888886,21.162217881944443,0)" xlink:href="#ah"/><use transform="matrix(0.010959201388888886,0,0,0.010959201388888886,33.00911458333333,0)" xlink:href="#ak"/><use transform="matrix(0.010959201388888886,0,0,0.010959201388888886,46.751953124999986,0)" xlink:href="#ad"/><use transform="matrix(0.010959201388888886,0,0,0.010959201388888886,60.20985243055554,0)" xlink:href="#R"/><use transform="matrix(0.010959201388888886,0,0,0.010959201388888886,73.4704861111111,0)" xlink:href="#ah"/><use transform="matrix(0.010959201388888886,0,0,0.010959201388888886,85.31738281249999,0)" xlink:href="#V"/></g><path fill="#3a414a" d="M180 0v-1490h224l606 953c40 63 108 177 176 312-27-437-7-821-13-1265h190V0h-226C860-448 622-778 356-1262c27 476 11 792 15 1262H180" id="al"/><g id="w"><use transform="matrix(0.010959201388888886,0,0,0.010959201388888886,0,0)" xlink:href="#al"/><use transform="matrix(0.010959201388888886,0,0,0.010959201388888886,16.91004774305555,0)" xlink:href="#ad"/></g><g id="x"><use transform="matrix(0.010959201388888886,0,0,0.010959201388888886,0,0)" xlink:href="#ah"/><use transform="matrix(0.010959201388888886,0,0,0.010959201388888886,11.846896701388886,0)" xlink:href="#Z"/><use transform="matrix(0.010959201388888886,0,0,0.010959201388888886,19.18956163194444,0)" xlink:href="#af"/><use transform="matrix(0.010959201388888886,0,0,0.010959201388888886,27.989800347222214,0)" xlink:href="#X"/><use transform="matrix(0.010959201388888886,0,0,0.010959201388888886,33.4255642361111,0)" xlink:href="#ak"/></g><g id="y"><use transform="matrix(0.010959201388888886,0,0,0.010959201388888886,0,0)" xlink:href="#S"/><use transform="matrix(0.010959201388888886,0,0,0.010959201388888886,5.4357638888888875,0)" xlink:href="#ad"/><use transform="matrix(0.010959201388888886,0,0,0.010959201388888886,18.89366319444444,0)" xlink:href="#ab"/><use transform="matrix(0.010959201388888886,0,0,0.010959201388888886,31.935112847222214,0)" xlink:href="#Q"/><use transform="matrix(0.010959201388888886,0,0,0.010959201388888886,44.538194444444436,0)" xlink:href="#S"/><use transform="matrix(0.010959201388888886,0,0,0.010959201388888886,49.97395833333332,0)" xlink:href="#ah"/></g></defs></g></svg>