<svg xmlns="http://www.w3.org/2000/svg" xmlns:xlink="http://www.w3.org/1999/xlink" xmlns:lucid="lucid" width="1086.52" height="589.1"><g transform="translate(587.4100877773103 855.3602669556376)" lucid:page-tab-id="0_0"><path d="M-143.28-525.36h53.33v40h-53.33zM-89.95-525.36h53.33v40h-53.33zM-36.62-525.36h53.34v40h-53.34z" fill="#c3f7c8"/><path d="M16.72-525.36h53.33v40H16.72zM-143.28-485.36h53.33v40h-53.33zM-89.95-485.36h53.33v40h-53.33zM-36.62-485.36h53.34v40h-53.34z" fill="#c3f7c8"/><path d="M16.72-485.36h53.33v40H16.72zM-143.28-445.36h53.33v40h-53.33z" fill="#c3f7c8"/><path d="M-89.95-445.36h53.33v40h-53.33zM-36.62-445.36h53.34v40h-53.34z" fill="#fcce14"/><path d="M16.72-445.36h53.33v40H16.72z" fill="#ffdda6"/><path d="M-143.28-525.36v40M-143.28-525.36h53.33M-89.95-525.36v40M-89.95-525.36h53.33M-36.62-525.36v40M-36.62-525.36h53.34M16.72-525.36v40M70.05-525.36v40M16.72-525.36h53.33M-143.28-485.36v40M-143.28-485.36h53.33M-89.95-485.36v40M-89.95-485.36h53.33M-36.62-485.36v40M-36.62-485.36h53.34M16.72-485.36v40M70.05-485.36v40M16.72-485.36h53.33M-143.28-445.36v40M-143.28-445.36h53.33M-143.28-405.36h53.33M-89.95-445.36v40M-89.95-445.36h53.33M-89.95-405.36h53.33M-36.62-445.36v40M-36.62-445.36h53.34M-36.62-405.36h53.34M16.72-445.36v40M70.05-445.36v40M16.72-445.36h53.33M16.72-405.36h53.33" stroke="#4c535d" fill="none"/><use xlink:href="#a" transform="matrix(1,0,0,1,-84.94911282861382,-440.3602669556376) translate(15.13693576388889 23.08376736111111)"/><use xlink:href="#b" transform="matrix(1,0,0,1,-31.615779495280492,-440.3602669556376) translate(17.02875434027778 23.89214409722222)"/><path d="M-143.28-559.36a6 6 0 0 1 6-6h56.56a6 6 0 0 1 6 6v28a6 6 0 0 1-6 6h-56.56a6 6 0 0 1-6-6z" fill="none"/><use xlink:href="#c" transform="matrix(1,0,0,1,-143.28244616194706,-565.3602669556376) translate(6.168836805555557 28.08376736111111)"/><path d="M285.28-804.03h35.55v28.1h-35.55z" fill="#00a7e1" fill-opacity=".59"/><path d="M320.83-804.03h35.56v28.1h-35.57zM356.4-804.03h35.55v28.1H356.4z" fill="#00a7e1" fill-opacity=".59"/><path d="M391.94-804.03h35.56v28.1h-35.56zM427.5-804.03h35.56v28.1H427.5zM463.06-804.03h35.55v28.1h-35.54zM285.28-775.92h35.55v28.1h-35.55z" fill="#00a7e1" fill-opacity=".59"/><path d="M320.83-775.92h35.56v28.1h-35.57zM356.4-775.92h35.55v28.1H356.4z" fill="#00a7e1" fill-opacity=".59"/><path d="M391.94-775.92h35.56v28.1h-35.56zM427.5-775.92h35.56v28.1H427.5zM463.06-775.92h35.55v28.1h-35.54zM285.28-747.8h35.55v28.1h-35.55z" fill="#00a7e1" fill-opacity=".59"/><path d="M320.83-747.8h35.56v28.1h-35.57zM356.4-747.8h35.55v28.1H356.4z" fill="#00a7e1" fill-opacity=".59"/><path d="M391.94-747.8h35.56v28.1h-35.56zM427.5-747.8h35.56v28.1H427.5zM463.06-747.8h35.55v28.1h-35.54zM285.28-719.7h35.55v28.12h-35.55z" fill="#00a7e1" fill-opacity=".59"/><path d="M320.83-719.7h35.56v28.12h-35.57zM356.4-719.7h35.55v28.12H356.4z" fill="#979ea8"/><path d="M391.94-719.7h35.56v28.12h-35.56zM427.5-719.7h35.56v28.12H427.5zM463.06-719.7h35.55v28.12h-35.54zM285.28-691.58h35.55v36.88h-35.55z" fill="#979ea8"/><path d="M320.83-691.58h35.56v36.88h-35.57zM356.4-691.58h35.55v36.88H356.4z" fill="#979ea8"/><path d="M391.94-691.58h35.56v36.88h-35.56z" fill="#f4d9ff"/><path d="M427.5-691.58h35.56v36.88H427.5z" fill="#979ea8"/><path d="M463.06-691.58h35.55v36.88h-35.54zM285.28-654.7h35.55v28.12h-35.55z" fill="#6db1ff"/><path d="M320.83-654.7h35.56v28.12h-35.57zM356.4-654.7h35.55v28.12H356.4z" fill="#6db1ff"/><path d="M391.94-654.7h35.56v28.12h-35.56zM427.5-654.7h35.56v28.12H427.5zM463.06-654.7h35.55v28.12h-35.54z" fill="#6db1ff"/><path d="M285.28-804.03v28.1M285.28-804.03h35.55M320.83-804.03v28.1M320.83-804.03h35.56M356.4-804.03v28.1M356.4-804.03h35.55M391.94-804.03v28.1M391.94-804.03h35.56M427.5-804.03v28.1M427.5-804.03h35.56M463.06-804.03v28.1M498.6-804.03v28.1M463.06-804.03h35.55M285.28-775.92v28.1M285.28-775.92h35.55M320.83-775.92v28.1M320.83-775.92h35.56M356.4-775.92v28.1M356.4-775.92h35.55M391.94-775.92v28.1M391.94-775.92h35.56M427.5-775.92v28.1M427.5-775.92h35.56M463.06-775.92v28.1M498.6-775.92v28.1M463.06-775.92h35.55M285.28-747.8v28.1M285.28-747.8h35.55M320.83-747.8v28.1M320.83-747.8h35.56M356.4-747.8v28.1M356.4-747.8h35.55M391.94-747.8v28.1M391.94-747.8h35.56M427.5-747.8v28.1M427.5-747.8h35.56M463.06-747.8v28.1M498.6-747.8v28.1M463.06-747.8h35.55M285.28-719.7v28.12M285.28-719.7h35.55M320.83-719.7v28.12M320.83-719.7h35.56M356.4-719.7v28.12M356.4-719.7h35.55M391.94-719.7v28.12M391.94-719.7h35.56M427.5-719.7v28.12M427.5-719.7h35.56M463.06-719.7v28.12M498.6-719.7v28.12M463.06-719.7h35.55M285.28-691.58v36.88M285.28-691.58h35.55M320.83-691.58v36.88M320.83-691.58h35.56M356.4-691.58v36.88M356.4-691.58h35.55M391.94-691.58v36.88M391.94-691.58h35.56M427.5-691.58v36.88M427.5-691.58h35.56M463.06-691.58v36.88M498.6-691.58v36.88M463.06-691.58h35.55M285.28-654.7v28.12M285.28-654.7h35.55M285.28-626.58h35.55M320.83-654.7v28.12M320.83-654.7h35.56M320.83-626.58h35.56M356.4-654.7v28.12M356.4-654.7h35.55M356.4-626.58h35.55M391.94-654.7v28.12M391.94-654.7h35.56M391.94-626.58h35.56M427.5-654.7v28.12M427.5-654.7h35.56M427.5-626.58h35.56M463.06-654.7v28.12M498.6-654.7v28.12M463.06-654.7h35.55M463.06-626.58h35.55" stroke="#4c535d" fill="none"/><use xlink:href="#d" transform="matrix(1,0,0,1,396.9453996970378,-686.5837791580915) translate(6.223741319444445 21.58376736111111)"/><path d="M285.28-849.36a6 6 0 0 1 6-6h74.44a6 6 0 0 1 6 6v39.33a6 6 0 0 1-6 6h-74.44a6 6 0 0 1-6-6z" fill="none"/><use xlink:href="#e" transform="matrix(1,0,0,1,285.27873303037126,-855.3602669556376) translate(3.634548611111107 34.083767361111114)"/><path d="M-566.9-511.4a6 6 0 0 1 6-6h116.05a6 6 0 0 1 6 6v48a6 6 0 0 1-6 6H-560.9a6 6 0 0 1-6-6z" fill="none"/><use xlink:href="#f" transform="matrix(1,0,0,1,-566.9100877773103,-517.3858140282664) translate(34.60633680555556 38.083767361111114)"/><path d="M-362.53-486.9h-75.82v-.96h75.82zm202.36 0h-107.15v-.96h107.15z" stroke="#3a414a" stroke-width=".05" fill="#3a414a"/><path d="M-438.34-486.9h-.5v-.96h.5z" fill="#3a414a"/><path stroke="#3a414a" stroke-width=".05" fill="#3a414a"/><path d="M-145.4-487.4l-14.27 4.65v-9.27z" fill="#3a414a"/><path d="M-143.86-487.4l-16.28 5.3v-10.57zm-15.33 4l12.26-4-12.25-3.97z" stroke="#3a414a" stroke-width=".05" fill="#3a414a"/><use xlink:href="#g" transform="matrix(1,0,0,1,-362.5274078816614,-500.8298244449331) translate(0 21.52777777777778)"/><path d="M-586.9-451.4a6 6 0 0 1 6-6h34.72a6 6 0 0 1 6 6v32.06a6 6 0 0 1-6 6h-34.73a6 6 0 0 1-6-6z" stroke="#000" fill="#fcce14"/><use xlink:href="#h" transform="matrix(1,0,0,1,-581.9100877773103,-452.3858140282664) translate(13.98068576388889 25.90277777777778)"/><path d="M-539.18-435.36h55.4" stroke="#3a414a" fill="none"/><path d="M-539.17-434.9h-.5v-.94h.5z" stroke="#3a414a" stroke-width=".05" fill="#3a414a"/><path d="M-469.03-435.36l-14.26 4.63V-440z" stroke="#3a414a" fill="#3a414a"/><path d="M-466.9-451.4a6 6 0 0 1 6-6h34.72a6 6 0 0 1 6 6v32.06a6 6 0 0 1-6 6h-34.73a6 6 0 0 1-6-6z" fill="#f4d9ff"/><path d="M-449.33-457.4h11.57m5.8 0h5.78a6 6 0 0 1 6 6v5.36m0 5.34v10.68m0 5.34v5.35a6 6 0 0 1-6 6h-5.8m-5.78 0h-11.57m-5.8 0h-5.78a6 6 0 0 1-6-6v-5.35m0-5.34v-10.68m0-5.34v-5.35a6 6 0 0 1 6-6h5.78" stroke="#000" fill="none"/><use xlink:href="#i" transform="matrix(1,0,0,1,-461.9100877773105,-452.3858140282664) translate(11.723741319444445 25.90277777777778)"/><path d="M3.38-449.36a6 6 0 0 1 6-6h68a6 6 0 0 1 6 6v16.8a6 6 0 0 1-6 6h-68a6 6 0 0 1-6-6z" fill="none"/><path d="M3.38-450.95h20v20h-20z" stroke="#008a0e" stroke-width="2" fill="#fff"/><path d="M7.38-442.95l4 6 8-8" stroke="#008a0e" stroke-width="3" fill="none"/><path d="M418.6-699.36a6 6 0 0 1 6-6h68a6 6 0 0 1 6 6v16.82a6 6 0 0 1-6 6h-68a6 6 0 0 1-6-6z" fill="none"/><path d="M418.6-700.95h20v20h-20z" stroke="#008a0e" stroke-width="2" fill="#fff"/><path d="M422.6-692.95l4 6 8-8" stroke="#008a0e" stroke-width="3" fill="none"/><path d="M182.84-480.54H71.04v-.95h111.8zM375.62-487l-.07 1-.24 1-.38.93-.53.86-.67.76-.77.67-.87.53-.95.38-1 .24-.98.08h-91.12v-.95h91.08l.88-.06.86-.2.8-.33.74-.45.66-.56.56-.67.45-.74.33-.8.2-.85.07-.88V-609.7h.95z" stroke="#3a414a" stroke-width=".05" fill="#3a414a"/><path d="M71.06-480.54h-.5v-.95h.5z" fill="#3a414a"/><path stroke="#3a414a" stroke-width=".05" fill="#3a414a"/><path d="M379.8-610.2h-9.3l4.65-14.27z" fill="#3a414a"/><path d="M380.44-609.73h-10.58l5.3-16.27zm-9.27-.94h7.96l-3.98-12.26z" stroke="#3a414a" stroke-width=".05" fill="#3a414a"/><use xlink:href="#g" transform="matrix(1,0,0,1,182.84395566437965,-494.45855367848407) translate(0 21.52777777777778)"/><path d="M205.28-456.98a6 6 0 0 1 6-6H246a6 6 0 0 1 6 6v32.05a6 6 0 0 1-6 6H211.3a6 6 0 0 1-6-6z" fill="#f4d9ff"/><path d="M222.85-462.98h11.58m5.8 0H246a6 6 0 0 1 6 6v5.34m0 5.35v10.7m0 5.33v5.34a6 6 0 0 1-6 6h-5.78m-5.8 0h-11.56m-5.8 0h-5.78a6 6 0 0 1-6-6v-5.34m0-5.34v-10.7m0-5.34v-5.34a6 6 0 0 1 6-6h5.8" stroke="#000" fill="none"/><use xlink:href="#i" transform="matrix(1,0,0,1,210.2787330303711,-457.9781769631177) translate(11.723741319444445 25.90277777777778)"/><path d="M-144.28-465.36h-28.97a6 6 0 0 0-6 6v8a6 6 0 0 1-6 6h-13.1" stroke="#3a414a" fill="none"/><path d="M-143.78-464.9h-.5v-.94h.5z" stroke="#3a414a" stroke-width=".05" fill="#3a414a"/><path d="M-213.1-445.36l14.26-4.64v9.27z" stroke="#3a414a" fill="#3a414a"/><use xlink:href="#j" transform="matrix(1,0,0,1,-247.65529474740651,-436.7250120400134) translate(0 17.22222222222222)"/><use xlink:href="#k" transform="matrix(1,0,0,1,-247.65529474740651,-436.7250120400134) translate(39.38368055555556 17.22222222222222)"/><path d="M-539.18-435.36h29.63a6 6 0 0 1 6 6v66.28a6 6 0 0 0 6 6h13.76" stroke="#3a414a" fill="none"/><path d="M-539.17-434.9h-.5v-.94h.5z" stroke="#3a414a" stroke-width=".05" fill="#3a414a"/><path d="M-469.03-357.08l-14.26 4.63v-9.27z" stroke="#3a414a" fill="#3a414a"/><path d="M-466.9-373.1a6 6 0 0 1 6-6h34.72a6 6 0 0 1 6 6v32.04a6 6 0 0 1-6 6h-34.73a6 6 0 0 1-6-6z" stroke="#000" fill="#fcce14"/><use xlink:href="#a" transform="matrix(1,0,0,1,-461.9100877773105,-374.1102669556376) translate(11.63693576388889 25.90277777777778)"/><path d="M-45.97-451.4a6 6 0 0 1 6-6h68a6 6 0 0 1 6 6v16.83a6 6 0 0 1-6 6h-68a6 6 0 0 1-6-6z" fill="none"/><path d="M-45.97-452.98h20v20h-20z" stroke="#008a0e" stroke-width="2" fill="#fff"/><path d="M-41.97-444.98l4 6 8-8" stroke="#008a0e" stroke-width="3" fill="none"/><path d="M428.54-625.58v23.15" stroke="#3a414a" fill="none"/><path d="M429.02-625.57h-.95v-.5h.95z" stroke="#3a414a" stroke-width=".05" fill="#3a414a"/><path d="M428.54-587.66l-4.63-14.27h9.28z" stroke="#3a414a" fill="#3a414a"/><path d="M387.36-585.54h80v20h-80zM387.36-565.54h80v20.1h-80z" fill="#f4d9ff"/><path d="M387.36-545.45h80v20.1h-80z" fill="#f4d9ff"/><path d="M387.36-585.54v20M467.36-585.54v20M387.36-585.54h80M387.36-565.54v20.1M467.36-565.54v20.1M387.36-565.54h80M387.36-545.45v20.1M467.36-545.45v20.1M387.36-545.45h80M387.36-525.36h80" stroke="#000" fill="none"/><path d="M-36.62-404.36V-376" stroke="#3a414a" fill="none"/><path d="M-36.14-404.35h-.95v-.5h.96z" stroke="#3a414a" stroke-width=".05" fill="#3a414a"/><path d="M-36.62-361.23l-4.63-14.26h9.27z" stroke="#3a414a" fill="#3a414a"/><path d="M-76.62-359.1h80v20h-80zM-76.62-339.1h80v20h-80zM-76.62-319.1h80v20.08h-80z" fill="#fcce14"/><path d="M-76.62-359.1v20M3.38-359.1v20M-76.62-359.1h80M-76.62-339.1v20M3.38-339.1v20M-76.62-339.1h80M-76.62-319.1v20.08M3.38-319.1v20.08M-76.62-319.1h80M-76.62-299.02h80" stroke="#000" fill="none"/><path d="M-245.97-387.13h80v20h-80zM-245.97-367.13h80v20h-80zM-245.97-347.13h80v20.1h-80z" fill="#fcce14"/><path d="M-245.97-327.04h80v20.1h-80z" fill="#f4d9ff"/><path d="M-245.97-306.95h80v20.1h-80z" fill="#f4d9ff"/><path d="M-245.97-286.86h80v20.1h-80z" fill="#f4d9ff"/><path d="M-245.97-387.13v20M-165.97-387.13v20M-245.97-387.13h80M-245.97-367.13v20M-165.97-367.13v20M-245.97-367.13h80M-245.97-347.13v20.1M-165.97-347.13v20.1M-245.97-347.13h80M-245.97-327.04v20.1M-165.97-327.04v20.1M-245.97-327.04h80M-245.97-306.95v20.1M-165.97-306.95v20.1M-245.97-306.95h80M-245.97-286.86v20.1M-165.97-286.86v20.1M-245.97-286.86h80M-245.97-266.76h80" stroke="#000" fill="none"/><defs><path d="M635 20c-292 0-500-160-510-396h192c11 142 145 229 315 229 187 0 323-105 323-260 0-161-125-274-346-274H488v-165h121c174 0 294-100 294-254 0-148-104-245-266-245-152 0-291 85-297 230H157c8-234 222-395 484-395 278 0 448 188 448 400 0 168-95 291-247 336v12c190 31 301 169 301 357 0 244-216 425-508 425" id="l"/><use transform="matrix(0.010850694444444444,0,0,0.010850694444444444,0,0)" xlink:href="#l" id="a"/><path d="M653-1490V0H466v-1314h-10L96-1047v-204l324-239h233" id="m"/><use transform="matrix(0.01193576388888889,0,0,0.01193576388888889,0,0)" xlink:href="#m" id="b"/><path fill="#3a414a" d="M180 0v-1490h190v1322h690V0H180" id="n"/><path fill="#3a414a" d="M613 24c-304 0-509-231-509-576 0-350 205-580 509-580 305 0 511 230 511 580 0 345-206 576-511 576zm0-161c226 0 329-195 329-415 0-222-103-419-329-419-223 0-326 196-326 419 0 220 103 415 326 415" id="o"/><path fill="#3a414a" d="M613 24c-304 0-509-231-509-576 0-350 205-580 509-580 216 0 392 114 453 309l-173 49c-33-115-133-197-280-197-223 0-326 196-326 419 0 220 103 415 326 415 150 0 252-85 285-206l172 49C1010-95 832 24 613 24" id="p"/><path fill="#3a414a" d="M471 26C259 26 90-98 90-318c0-256 228-303 435-329 202-27 287-16 287-108 0-139-79-219-234-219-161 0-248 86-283 164l-173-57c86-203 278-265 451-265 150 0 419 46 419 395V0H815v-152h-12C765-73 660 26 471 26zm31-159c199 0 310-134 310-271v-155c-30 35-226 55-295 64-131 17-246 59-246 186 0 116 97 176 231 176" id="q"/><path fill="#3a414a" d="M338-1490V0H158v-1490h180" id="r"/><g id="c"><use transform="matrix(0.010850694444444444,0,0,0.010850694444444444,0,0)" xlink:href="#n"/><use transform="matrix(0.010850694444444444,0,0,0.010850694444444444,12.565104166666666,0)" xlink:href="#o"/><use transform="matrix(0.010850694444444444,0,0,0.010850694444444444,25.889756944444443,0)" xlink:href="#p"/><use transform="matrix(0.010850694444444444,0,0,0.010850694444444444,38.80208333333333,0)" xlink:href="#q"/><use transform="matrix(0.010850694444444444,0,0,0.010850694444444444,51.28038194444444,0)" xlink:href="#r"/></g><path d="M154 0v-137l495-537c165-179 249-281 249-418 0-156-121-253-280-253-170 0-278 110-278 278H158c0-264 200-443 465-443 266 0 455 183 455 416 0 161-73 288-336 568L416-179v12h687V0H154" id="s"/><use transform="matrix(0.010850694444444444,0,0,0.010850694444444444,0,0)" xlink:href="#s" id="d"/><path fill="#3a414a" d="M180 0v-1490h510c348 0 508 194 508 460 0 198-88 351-276 417L1256 0h-220L726-579c-117 2-238 0-356 1V0H180zm190-747h312c235 0 327-108 327-283 0-177-92-293-329-293H370v576" id="t"/><path fill="#3a414a" d="M628 24c-324 0-524-230-524-574 0-343 198-582 503-582 237 0 487 146 487 559v75H286c9 234 145 362 343 362 132 0 231-58 273-172l174 48C1024-91 857 24 628 24zM287-650h624c-17-190-120-322-304-322-192 0-309 151-320 322" id="u"/><path fill="#3a414a" d="M158 0v-1118h175l1 205c55-151 181-225 313-225 147 0 245 90 285 228 53-141 190-228 352-228 194 0 352 125 352 384V0h-181v-749c0-161-105-225-225-225-151 0-243 103-243 244V0H807v-767c0-124-93-207-219-207-131 0-250 92-250 270V0H158" id="v"/><path fill="#3a414a" d="M598-1118v154H368v674c0 100 37 144 132 144 23 0 62-6 92-12L629-6c-37 13-88 20-134 20-193 0-307-107-307-290v-688H20v-154h168v-266h180v266h230" id="w"/><g id="e"><use transform="matrix(0.010850694444444444,0,0,0.010850694444444444,0,0)" xlink:href="#t"/><use transform="matrix(0.010850694444444444,0,0,0.010850694444444444,13.975694444444445,0)" xlink:href="#u"/><use transform="matrix(0.010850694444444444,0,0,0.010850694444444444,26.931423611111104,0)" xlink:href="#v"/><use transform="matrix(0.010850694444444444,0,0,0.010850694444444444,46.39756944444444,0)" xlink:href="#o"/><use transform="matrix(0.010850694444444444,0,0,0.010850694444444444,59.72222222222222,0)" xlink:href="#w"/><use transform="matrix(0.010850694444444444,0,0,0.010850694444444444,66.77517361111111,0)" xlink:href="#u"/></g><path d="M180 0v-1490h510c348 0 508 209 508 474 0 266-160 477-507 477H370V0H180zm190-706h312c236 0 327-133 327-310 0-176-91-307-329-307H370v617" id="x"/><path d="M784 20c-382 0-662-292-662-764 0-473 280-766 662-766s660 293 660 766c0 472-278 764-660 764zm0-176c266 0 475-207 475-588 0-383-209-590-475-590-268 0-477 208-477 590 0 380 209 588 477 588" id="y"/><path d="M657 26c-323 0-524-166-541-416h195c15 169 171 246 346 246 202 0 356-106 356-265 5-203-294-238-475-293-239-73-380-191-380-389 0-252 224-419 512-419 294 0 499 171 508 396H992c-17-145-151-228-328-228-193 0-321 102-321 242 0 156 175 211 284 241l149 41c160 44 422 134 422 412 0 244-197 432-541 432" id="z"/><path d="M98-1322v-168h1126v168H757V0H567v-1322H98" id="A"/><g id="f"><use transform="matrix(0.010850694444444444,0,0,0.010850694444444444,0,0)" xlink:href="#x"/><use transform="matrix(0.010850694444444444,0,0,0.010850694444444444,14.192708333333332,0)" xlink:href="#y"/><use transform="matrix(0.010850694444444444,0,0,0.010850694444444444,31.184895833333332,0)" xlink:href="#z"/><use transform="matrix(0.010850694444444444,0,0,0.010850694444444444,45.44270833333333,0)" xlink:href="#A"/></g><path fill="#cc4e00" d="M620 201V20C297 2 93-164 85-462h297c9 133 104 207 238 223v-394l-92-23c-252-61-403-188-403-405 0-251 205-424 495-447v-183h120v183c299 19 491 196 496 443H941c-10-104-83-169-201-185v373c274 53 520 177 516 453 0 256-190 426-516 444v181H620zm120-441c128-17 209-88 209-186 0-92-76-139-209-176v362zM620-908v-341c-117 17-182 83-182 168 0 94 80 142 182 173" id="B"/><path fill="#cc4e00" d="M633 22C291 22 81-200 81-553c0-345 210-579 537-579 292 0 525 185 525 567v84H378c7 183 109 277 260 277 105 0 184-46 216-132l272 51C1071-99 893 22 633 22zM380-669h474c-15-146-94-237-233-237-143 0-229 99-241 237" id="C"/><path fill="#cc4e00" d="M42 0l360-574-338-544h324c72 124 151 261 209 394 58-134 140-271 215-394h318L785-570 1146 0H824c-79-136-169-280-234-425C528-278 439-134 360 0H42" id="D"/><path fill="#cc4e00" d="M128 418v-1536h295v188h14c41-89 129-202 319-202 248 0 453 193 453 575 0 372-197 576-455 576-183 0-275-108-317-198h-9v597H128zm534-640c156 0 240-139 240-336 0-196-83-334-240-334-154 0-241 131-241 334 0 202 88 336 241 336" id="E"/><path fill="#cc4e00" d="M440 22C227 22 68-92 68-313c0-250 202-322 422-343 195-21 271-24 271-105 0-95-63-149-175-149-116 0-187 57-211 129l-275-46c57-194 237-305 487-305 240 0 474 108 474 379V0H777v-155h-10C713-51 605 22 440 22zm85-211c140 0 238-93 238-211v-121c-37 26-156 42-222 51-111 16-185 59-185 149 0 87 70 132 169 132" id="F"/><path fill="#cc4e00" d="M428-647V0H128v-1118h283l4 231c63-156 176-245 348-245 232 0 384 159 384 421V0H847v-659c0-139-76-222-202-222-128 0-217 86-217 234" id="G"/><path fill="#cc4e00" d="M537 19C279 19 81-185 81-557c0-382 206-575 454-575 190 0 278 113 318 202h10v-560h300V0H868v-179h-15C812-89 719 19 537 19zm92-241c153 0 240-134 240-336 0-203-86-334-240-334-158 0-240 138-240 334 0 197 84 336 240 336" id="H"/><g id="g"><use transform="matrix(0.010850694444444444,0,0,0.010850694444444444,0,0)" xlink:href="#B"/><use transform="matrix(0.010850694444444444,0,0,0.010850694444444444,14.55078125,0)" xlink:href="#C"/><use transform="matrix(0.010850694444444444,0,0,0.010850694444444444,27.34375,0)" xlink:href="#D"/><use transform="matrix(0.010850694444444444,0,0,0.010850694444444444,40.234375,0)" xlink:href="#E"/><use transform="matrix(0.010850694444444444,0,0,0.010850694444444444,54.459635416666664,0)" xlink:href="#F"/><use transform="matrix(0.010850694444444444,0,0,0.010850694444444444,67.36111111111111,0)" xlink:href="#G"/><use transform="matrix(0.010850694444444444,0,0,0.010850694444444444,81.19574652777779,0)" xlink:href="#H"/></g><use transform="matrix(0.010850694444444444,0,0,0.010850694444444444,0,0)" xlink:href="#m" id="h"/><use transform="matrix(0.010850694444444444,0,0,0.010850694444444444,0,0)" xlink:href="#s" id="i"/><path fill="#333" d="M124 0v-220l528-495c135-132 210-216 210-336 0-133-98-215-231-215-139 0-229 88-229 233H110c0-290 214-477 523-477 315 0 525 182 525 440 0 167-80 305-385 586L548-262v11h630V0H124" id="I"/><path fill="#333" d="M690 20C314 20 94-261 94-744c0-482 221-766 596-766 376 0 597 284 597 766 0 483-219 764-597 764zm0-253c184 0 286-184 286-511 0-328-102-514-286-514-183 0-285 187-285 514s101 511 285 511" id="J"/><g id="j"><use transform="matrix(0.008680555555555556,0,0,0.008680555555555556,0,0)" xlink:href="#I"/><use transform="matrix(0.008680555555555556,0,0,0.008680555555555556,11.197916666666668,0)" xlink:href="#J"/><use transform="matrix(0.008680555555555556,0,0,0.008680555555555556,23.185763888888893,0)" xlink:href="#J"/></g><path fill="#333" d="M789 20C394 20 94-260 94-744c0-487 300-766 695-766s695 279 695 766c0 485-300 764-695 764zm0-271c231 0 385-174 385-493 0-321-154-495-385-495s-385 175-385 495c0 319 154 493 385 493" id="K"/><path fill="#333" d="M135 0v-1490h305c1 251 0 501-5 746 157-254 405-512 598-746h373L849-845 1422 0h-361L638-644 440-426V0H135" id="L"/><g id="k"><use transform="matrix(0.008680555555555556,0,0,0.008680555555555556,0,0)" xlink:href="#K"/><use transform="matrix(0.008680555555555556,0,0,0.008680555555555556,13.697916666666668,0)" xlink:href="#L"/></g></defs></g></svg>