<?xml version="1.0" encoding="UTF-8"?>
<svg width="205px" height="74px" viewBox="0 0 205 74" version="1.1" xmlns="http://www.w3.org/2000/svg" xmlns:xlink="http://www.w3.org/1999/xlink">
    <title>aidbox-logo</title>
    <g id="aidbox-logo" stroke="none" stroke-width="1" fill="none" fill-rule="evenodd">
        <path d="M81.1229508,48.4303279 L82.6236741,44.6785198 L90.7275796,44.6785198 L92.2583173,48.4303279 L98.5013259,48.4303279 L89.5570154,27.2701302 L83.9443105,27.2701302 L75,48.4303279 L81.1229508,48.4303279 Z M89.0467695,40.1463356 L84.3344986,40.1463356 L86.7056413,34.1734571 L89.0467695,40.1463356 Z M106.515188,48.4303279 L106.515188,27.4202025 L100.662367,27.4202025 L100.662367,48.4303279 L106.515188,48.4303279 Z M118.340887,48.4303279 C125.904532,48.4303279 130.316659,43.9281581 130.316659,37.8652363 C130.316659,31.7422854 125.964561,27.4202025 118.460945,27.4202025 L110.35704,27.4202025 L110.35704,48.4303279 L118.340887,48.4303279 Z M118.550988,43.2678399 L116.179846,43.2678399 L116.179846,32.5226615 L118.550988,32.5226615 C122.032666,32.5226615 124.34378,34.5336307 124.34378,37.8952507 C124.34378,41.3469142 122.032666,43.2678399 118.550988,43.2678399 Z M144.153327,48.4303279 C149.165743,48.4303279 152.10716,46.2392719 152.10716,42.6375362 C152.10716,39.7261331 150.486379,38.2854388 147.935149,37.4450338 C149.796046,36.6346432 151.176712,35.1939489 151.176712,32.7627772 C151.176712,31.262054 150.666466,30.1515188 149.826061,29.3111138 C148.595468,28.0805207 146.734571,27.4202025 144.093298,27.4202025 L133.318105,27.4202025 L133.318105,48.4303279 L144.153327,48.4303279 Z M142.652604,35.7942382 L138.990839,35.7942382 L138.990839,32.102459 L142.772662,32.102459 C144.5135,32.102459 145.413934,32.7627772 145.413934,33.9033269 C145.413934,35.1939489 144.423457,35.7942382 142.652604,35.7942382 Z M143.493009,43.7480714 L138.990839,43.7480714 L138.990839,39.8762054 L143.43298,39.8762054 C145.38392,39.8762054 146.284354,40.626567 146.284354,41.7671167 C146.284354,43.0577387 145.263862,43.7480714 143.493009,43.7480714 Z M165.343539,48.8505304 C171.826663,48.8505304 176.689007,43.9581726 176.689007,37.9252652 C176.689007,31.8323288 171.886692,27 165.403568,27 C158.920444,27 154.0581,31.8923578 154.0581,37.9252652 C154.0581,44.0182015 158.860415,48.8505304 165.343539,48.8505304 Z M165.403568,43.597999 C162.222035,43.597999 160.030979,40.9567261 160.030979,37.9252652 C160.030979,34.8337753 162.162006,32.2525313 165.343539,32.2525313 C168.555087,32.2525313 170.746143,34.8938042 170.746143,37.9252652 C170.746143,41.0167551 168.615116,43.597999 165.403568,43.597999 Z M184.732883,48.4303279 L188.784836,42.0972758 L192.806774,48.4303279 L199.5,48.4303279 L192.296528,37.6851495 L199.199855,27.4202025 L192.656702,27.4202025 L188.904894,33.3330521 L185.1831,27.4202025 L178.489875,27.4202025 L185.393202,37.7451784 L178.18973,48.4303279 L184.732883,48.4303279 Z" id="AIDBOX" fill="#000000" fill-rule="nonzero"></path>
        <g id="Aidbox_newlogo" transform="translate(1.000000, 1.000000)">
            <g id="Box" fill="#000000" fill-rule="nonzero">
                <path d="M42.977,55.463 L42.896,64.678 L30.0000381,72 L18.969,65.29 L18.874,55.903 L30.1363113,62.7534194 L42.977,55.463 Z M15.381,9.077 L15.299,18.504 L7.8816529,23.1026525 L7.8816529,49.2174024 L14.994,53.543 L14.913,62.823 L0,53.7523633 L0,18.6123741 L15.381,9.077 Z M46.408,9.731 L62,18.9911383 L62,53.8319979 L46.939,62.382 L46.847,53.265 L54.1172675,49.1383789 L54.1172675,23.5807943 L46.502,19.057 L46.408,9.731 Z M30.024804,0 L43.391,7.939 L43.311,17.162 L30.1116781,9.322563 L18.477,16.534 L18.383,7.216 L30.024804,0 Z" id="Combined-Shape"></path>
            </g>
            <g id="A" transform="translate(14.630371, 20.468796)">
                <path d="M9.70914837,24.5922655 L10.4549561,23.035461 L10.4549561,23.035461 L20.7458493,23.035461 L22.7650064,28 L31,28 L19.201788,0 L11.798212,0 L1.13686838e-13,28 L4.29803393,28 C6.60721497,28 8.71147996,26.674806 9.70914837,24.5922655 Z M19,17 L12.7991943,17 L15.8995972,8.9263324 L19,17 Z" fill="#EA4A35" fill-rule="nonzero"></path>
                <path d="M4.59610694,28 L5.68434189e-14,28 L5.68434189e-14,28 L11.798212,0 L19.201788,0 L10.2180843,24.0960368 C9.34290182,26.4434461 7.10135646,28 4.59610694,28 Z" id="Path-33" fill="#C62712"></path>
            </g>
        </g>
    </g>
</svg>