<svg width="30" height="22" viewBox="0 0 30 22" fill="none" xmlns="http://www.w3.org/2000/svg">
<path d="M7.66683 21.6667C5.64461 21.6667 3.91705 20.9667 2.48416 19.5667C1.05127 18.1667 0.334385 16.4556 0.333496 14.4333C0.333496 12.7 0.855718 11.1556 1.90016 9.80001C2.94461 8.44446 4.31127 7.57779 6.00016 7.20001C6.55572 5.15557 7.66683 3.50001 9.3335 2.23334C11.0002 0.966677 12.8891 0.333344 15.0002 0.333344C17.6002 0.333344 19.8059 1.23912 21.6175 3.05068C23.4291 4.86223 24.3344 7.06757 24.3335 9.66668C25.8668 9.84445 27.1393 10.5058 28.1508 11.6507C29.1624 12.7956 29.6677 14.1342 29.6668 15.6667C29.6668 17.3333 29.0837 18.7502 27.9175 19.9173C26.7513 21.0845 25.3344 21.6676 23.6668 21.6667H7.66683ZM7.66683 19H23.6668C24.6002 19 25.3891 18.6778 26.0335 18.0333C26.6779 17.3889 27.0002 16.6 27.0002 15.6667C27.0002 14.7333 26.6779 13.9445 26.0335 13.3C25.3891 12.6556 24.6002 12.3333 23.6668 12.3333H21.6668V9.66668C21.6668 7.82223 21.0166 6.24979 19.7162 4.94934C18.4157 3.6489 16.8437 2.99912 15.0002 3.00001C13.1566 3.0009 11.5846 3.65112 10.2842 4.95068C8.98372 6.25023 8.3335 7.82223 8.3335 9.66668H7.66683C6.37794 9.66668 5.27794 10.1222 4.36683 11.0333C3.45572 11.9445 3.00016 13.0445 3.00016 14.3333C3.00016 15.6222 3.45572 16.7222 4.36683 17.6333C5.27794 18.5445 6.37794 19 7.66683 19Z" fill="url(#paint0_linear_29_24913)"/>
<defs>
<linearGradient id="paint0_linear_29_24913" x1="15.0002" y1="0.333344" x2="15.0002" y2="21.6667" gradientUnits="userSpaceOnUse">
<stop stop-color="#FFB8B6"/>
<stop offset="1" stop-color="#EF4136"/>
</linearGradient>
</defs>
</svg>
