<svg width="256" height="148" viewBox="0 0 256 148" fill="none" xmlns="http://www.w3.org/2000/svg">
<mask id="path-1-inside-1_500_3399" fill="white">
<path d="M0 4C0 1.79086 1.79086 0 4 0H252C254.209 0 256 1.79086 256 4V148H0V4Z"/>
</mask>
<path d="M0 4C0 1.79086 1.79086 0 4 0H252C254.209 0 256 1.79086 256 4V148H0V4Z" fill="#181818"/>
<path d="M-1 4C-1 1.23858 1.23858 -1 4 -1H252C254.761 -1 257 1.23858 257 4H255C255 2.34315 253.657 1 252 1H4C2.34315 1 1 2.34315 1 4H-1ZM256 148H0H256ZM-1 148V4C-1 1.23858 1.23858 -1 4 -1V1C2.34315 1 1 2.34315 1 4V148H-1ZM252 -1C254.761 -1 257 1.23858 257 4V148H255V4C255 2.34315 253.657 1 252 1V-1Z" fill="#2A2A2A" mask="url(#path-1-inside-1_500_3399)"/>
<path d="M71.2716 60.0199C77.4608 59.6757 83.7109 61.2162 88.4474 64.6351C92.8341 67.8017 95.8809 72.5594 96.3448 78.7738C103.854 76.6588 110.008 77.7168 114.541 80.7415C119.358 83.9561 122.166 89.2736 122.871 94.8646C123.576 100.455 122.195 106.429 118.5 111.024C114.781 115.648 108.802 118.769 100.549 118.769H42.2257C36.5231 118.769 32.1878 116.256 29.3956 112.563C26.6273 108.901 25.4012 104.122 25.7531 99.5482C26.1053 94.9703 28.05 90.4862 31.7609 87.4994C35.2291 84.7081 40.0988 83.3393 46.3068 84.263C46.6558 76.7101 49.6778 70.9111 54.1261 66.8753C58.8361 62.6024 65.0774 60.3644 71.2716 60.0199ZM86.9845 66.6624C82.7892 63.6341 77.1299 62.1979 71.4103 62.516C65.6958 62.8338 60.0273 64.8972 55.8058 68.7269C51.6092 72.5344 48.7726 78.1476 48.7726 85.7425C48.7725 86.1169 48.6051 86.4719 48.3156 86.7093C48.026 86.9466 47.6446 87.0415 47.2775 86.9681C40.9464 85.7018 36.3781 86.9921 33.3282 89.4466C30.2537 91.9212 28.5561 95.7126 28.2462 99.7406C27.9362 103.772 29.0278 107.931 31.3898 111.055C33.728 114.148 37.3368 116.269 42.2257 116.269H100.549C108.122 116.269 113.353 113.434 116.552 109.457C119.774 105.45 121.021 100.175 120.391 95.1771C119.76 90.1795 117.269 85.568 113.153 82.8216C109.068 80.0952 103.199 79.0876 95.5538 81.6312C95.1728 81.7578 94.7535 81.6942 94.4279 81.4593C94.1024 81.2245 93.9095 80.847 93.9093 80.4456C93.9093 74.2574 91.1442 69.6652 86.9845 66.6624ZM65.3917 96.8548C66.4939 96.8548 67.3878 97.7488 67.3878 98.8509C67.3877 99.953 66.4938 100.846 65.3917 100.846C64.2897 100.846 63.3967 99.9529 63.3966 98.8509C63.3966 97.7488 64.2897 96.8549 65.3917 96.8548ZM74.3722 96.8548C75.4742 96.855 76.3673 97.7489 76.3673 98.8509C76.3672 99.9529 75.4742 100.846 74.3722 100.846C73.2701 100.846 72.3762 99.953 72.3761 98.8509C72.3761 97.7488 73.27 96.8548 74.3722 96.8548ZM83.3527 96.8548C84.4547 96.855 85.3478 97.7489 85.3478 98.8509C85.3477 99.9529 84.4546 100.846 83.3527 100.846C82.2506 100.846 81.3567 99.953 81.3566 98.8509C81.3566 97.7488 82.2505 96.8548 83.3527 96.8548Z" fill="url(#paint0_linear_500_3399)"/>
<defs>
<linearGradient id="paint0_linear_500_3399" x1="54.5279" y1="94.5692" x2="120.787" y2="94.5692" gradientUnits="userSpaceOnUse">
<stop stop-color="#E9777C"/>
<stop offset="1" stop-color="#A76FD2"/>
</linearGradient>
</defs>
</svg>
