<svg width="252" height="146" viewBox="0 0 252 146" fill="none" xmlns="http://www.w3.org/2000/svg">
<rect width="252" height="146" rx="4" fill="#F6F6F9"/>
<path d="M71.2718 58.021C77.4611 57.6769 83.7111 59.2173 88.4476 62.6362C92.8341 65.8028 95.8811 70.5606 96.3451 76.7749C103.854 74.6599 110.008 75.7178 114.541 78.7427C119.359 81.9573 122.166 87.2748 122.871 92.8657C123.576 98.4564 122.195 104.43 118.5 109.025C114.781 113.649 108.803 116.77 100.549 116.77H42.2259C36.5233 116.77 32.1881 114.257 29.3959 110.564C26.6276 106.903 25.4015 102.123 25.7533 97.5493C26.1055 92.9713 28.0501 88.4873 31.7611 85.5005C35.2294 82.7091 40.0989 81.3403 46.307 82.2642C46.656 74.7111 49.678 68.9122 54.1263 64.8765C58.8364 60.6035 65.0775 58.3654 71.2718 58.021ZM86.9847 64.6636C82.7894 61.6352 77.1302 60.1991 71.4105 60.5171C65.6959 60.8349 60.0276 62.8982 55.806 66.728C51.6093 70.5355 48.7728 76.1486 48.7728 83.7437C48.7727 84.118 48.6053 84.4731 48.3158 84.7104C48.0262 84.9477 47.6448 85.0426 47.2777 84.9692C40.9465 83.7028 36.3784 84.9932 33.3285 87.4478C30.2538 89.9224 28.5564 93.7137 28.2464 97.7417C27.9365 101.773 29.028 105.932 31.39 109.056C33.7283 112.149 37.3371 114.27 42.2259 114.27H100.549C108.123 114.27 113.354 111.435 116.552 107.458C119.775 103.452 121.021 98.1759 120.391 93.1782C119.761 88.1807 117.269 83.5692 113.154 80.8228C109.068 78.0963 103.2 77.0887 95.5541 79.6323C95.1731 79.759 94.7538 79.6952 94.4281 79.4604C94.1026 79.2256 93.9098 78.8481 93.9095 78.4468C93.9095 72.2587 91.1442 67.6663 86.9847 64.6636ZM65.3919 94.856C66.4941 94.856 67.3871 95.749 67.3871 96.8511C67.3871 97.9532 66.4941 98.8471 65.3919 98.8472C64.2898 98.8472 63.3959 97.9532 63.3959 96.8511C63.3959 95.7489 64.2898 94.856 65.3919 94.856ZM74.3714 94.856C75.4736 94.856 76.3675 95.7489 76.3675 96.8511C76.3675 97.9532 75.4736 98.8472 74.3714 98.8472C73.2695 98.8469 72.3763 97.9531 72.3763 96.8511C72.3763 95.7491 73.2695 94.8562 74.3714 94.856ZM83.3519 94.856C84.4541 94.856 85.348 95.7489 85.348 96.8511C85.348 97.9532 84.4541 98.8472 83.3519 98.8472C82.2499 98.8469 81.3568 97.9531 81.3568 96.8511C81.3568 95.7491 82.25 94.8562 83.3519 94.856Z" fill="url(#paint0_linear_500_3382)"/>
<defs>
<linearGradient id="paint0_linear_500_3382" x1="54.5281" y1="92.5694" x2="120.787" y2="92.5694" gradientUnits="userSpaceOnUse">
<stop stop-color="#DD2C34"/>
<stop offset="1" stop-color="#5D1098"/>
</linearGradient>
</defs>
</svg>
