<svg width="256" height="148" viewBox="0 0 256 148" fill="none" xmlns="http://www.w3.org/2000/svg">
<mask id="path-1-inside-1_500_3406" fill="white">
<path d="M0 4C0 1.79086 1.79086 0 4 0H252C254.209 0 256 1.79086 256 4V148H0V4Z"/>
</mask>
<path d="M0 4C0 1.79086 1.79086 0 4 0H252C254.209 0 256 1.79086 256 4V148H0V4Z" fill="#181818"/>
<path d="M-1 4C-1 1.23858 1.23858 -1 4 -1H252C254.761 -1 257 1.23858 257 4H255C255 2.34315 253.657 1 252 1H4C2.34315 1 1 2.34315 1 4H-1ZM256 148H0H256ZM-1 148V4C-1 1.23858 1.23858 -1 4 -1V1C2.34315 1 1 2.34315 1 4V148H-1ZM252 -1C254.761 -1 257 1.23858 257 4V148H255V4C255 2.34315 253.657 1 252 1V-1Z" fill="#2A2A2A" mask="url(#path-1-inside-1_500_3406)"/>
<path d="M116.522 117.487V120.748C116.522 123.214 114.515 125.22 112.049 125.22H27.1598C24.6939 125.22 22.6883 123.214 22.6881 120.748V117.487H116.522ZM24.778 119.577V120.748C24.7782 122.065 25.8434 123.13 27.1598 123.13H112.049C113.366 123.13 114.432 122.065 114.432 120.748V119.577H24.778ZM105.446 63.9875C107.744 63.9878 109.625 65.8686 109.626 68.1672V114.98H29.3756V68.1672C29.3757 65.8684 31.2565 63.9875 33.5553 63.9875H105.446ZM33.5553 66.0773C32.406 66.0773 31.4656 67.0179 31.4655 68.1672V112.89H107.536V68.1672C107.536 67.018 106.595 66.0776 105.446 66.0773H33.5553ZM69.5797 84.8244C69.7023 84.3344 70.1991 84.0359 70.6891 84.1584C71.179 84.2809 71.4764 84.7778 71.3541 85.2678L68.9908 94.7219C68.8683 95.2118 68.3715 95.5094 67.8815 95.3869C67.3917 95.2643 67.0942 94.7683 67.2164 94.2785L69.5797 84.8244ZM64.6998 85.9748C65.057 85.6181 65.6357 85.618 65.9928 85.9748C66.3499 86.3319 66.3499 86.9115 65.9928 87.2687L63.4879 89.7726L65.9928 92.2775C66.3499 92.6347 66.3499 93.2143 65.9928 93.5715C65.6357 93.9282 65.057 93.9282 64.6998 93.5715L61.5485 90.4201C61.1913 90.0629 61.1913 89.4833 61.5485 89.1262L64.6998 85.9748ZM72.5778 85.9748C72.9349 85.618 73.5136 85.618 73.8707 85.9748L77.0221 89.1262C77.3792 89.4833 77.3792 90.0629 77.0221 90.4201L73.8707 93.5715C73.5136 93.9281 72.9348 93.9282 72.5778 93.5715C72.2206 93.2143 72.2206 92.6347 72.5778 92.2775L75.0817 89.7726L72.5778 87.2687C72.2206 86.9115 72.2206 86.332 72.5778 85.9748Z" fill="url(#paint0_linear_500_3406)"/>
<defs>
<linearGradient id="paint0_linear_500_3406" x1="50.4788" y1="100.017" x2="114.341" y2="100.017" gradientUnits="userSpaceOnUse">
<stop stop-color="#E9777C"/>
<stop offset="1" stop-color="#A76FD2"/>
</linearGradient>
</defs>
</svg>
