<svg width="252" height="146" viewBox="0 0 252 146" fill="none" xmlns="http://www.w3.org/2000/svg">
<rect width="252" height="146" rx="4" fill="#F6F6F9"/>
<path d="M116.522 115.487V118.748C116.522 121.214 114.515 123.22 112.049 123.22H27.1598C24.6939 123.22 22.6883 121.214 22.6881 118.748V115.487H116.522ZM24.7779 117.577V118.748C24.7781 120.065 25.8433 121.13 27.1598 121.13H112.049C113.366 121.13 114.432 120.065 114.432 118.748V117.577H24.7779ZM105.446 61.9875C107.744 61.9878 109.625 63.8686 109.626 66.1672V112.98H29.3756V66.1672C29.3757 63.8684 31.2565 61.9875 33.5553 61.9875H105.446ZM33.5553 64.0773C32.4059 64.0773 31.4655 65.0179 31.4654 66.1672V110.89H107.536V66.1672C107.536 65.018 106.595 64.0776 105.446 64.0773H33.5553ZM69.5797 82.8244C69.7023 82.3344 70.1991 82.0359 70.6891 82.1584C71.1789 82.2809 71.4764 82.7778 71.3541 83.2678L68.9908 92.7219C68.8682 93.2118 68.3715 93.5094 67.8814 93.3869C67.3917 93.2643 67.0942 92.7683 67.2164 92.2785L69.5797 82.8244ZM64.6998 83.9748C65.057 83.6181 65.6357 83.618 65.9928 83.9748C66.3499 84.3319 66.3498 84.9115 65.9928 85.2687L63.4879 87.7726L65.9928 90.2775C66.3499 90.6347 66.3498 91.2143 65.9928 91.5715C65.6357 91.9282 65.0569 91.9282 64.6998 91.5715L61.5484 88.4201C61.1913 88.0629 61.1913 87.4833 61.5484 87.1262L64.6998 83.9748ZM72.5777 83.9748C72.9348 83.618 73.5136 83.618 73.8707 83.9748L77.0221 87.1262C77.3792 87.4833 77.3791 88.0629 77.0221 88.4201L73.8707 91.5715C73.5136 91.9281 72.9348 91.9282 72.5777 91.5715C72.2206 91.2143 72.2206 90.6347 72.5777 90.2775L75.0816 87.7726L72.5777 85.2687C72.2206 84.9115 72.2206 84.332 72.5777 83.9748Z" fill="url(#paint0_linear_500_3389)"/>
<defs>
<linearGradient id="paint0_linear_500_3389" x1="50.4788" y1="98.0172" x2="114.341" y2="98.0172" gradientUnits="userSpaceOnUse">
<stop stop-color="#DD2C34"/>
<stop offset="1" stop-color="#5D1098"/>
</linearGradient>
</defs>
</svg>
