<svg width="255" height="148" viewBox="0 0 255 148" fill="none" xmlns="http://www.w3.org/2000/svg">
<mask id="path-1-inside-1_500_3411" fill="white">
<path d="M0 4C0 1.79086 1.79086 0 4 0H251C253.209 0 255 1.79086 255 4V148H0V4Z"/>
</mask>
<path d="M0 4C0 1.79086 1.79086 0 4 0H251C253.209 0 255 1.79086 255 4V148H0V4Z" fill="#181818"/>
<path d="M-1 4C-1 1.23858 1.23858 -1 4 -1H251C253.761 -1 256 1.23858 256 4H254C254 2.34315 252.657 1 251 1H4C2.34315 1 1 2.34315 1 4H-1ZM255 148H0H255ZM-1 148V4C-1 1.23858 1.23858 -1 4 -1V1C2.34315 1 1 2.34315 1 4V148H-1ZM251 -1C253.761 -1 256 1.23858 256 4V148H254V4C254 2.34315 252.657 1 251 1V-1Z" fill="#2A2A2A" mask="url(#path-1-inside-1_500_3411)"/>
<path d="M91.4015 86.5C93.0619 85.0126 94.6364 83.4321 96.1174 81.766C101.269 75.9218 103.067 70.9024 101.179 67.6328C99.2913 64.3634 94.0458 63.4105 86.4086 64.9498C84.2252 65.3993 82.0691 65.9725 79.9508 66.6668C79.4928 64.4852 78.9112 62.3314 78.2089 60.2158C75.7235 52.8319 72.2757 48.7656 68.5001 48.7656C64.7246 48.7656 61.2765 52.8319 58.7914 60.2158C58.0889 62.3313 57.5074 64.4851 57.0494 66.6668C54.9311 65.9725 52.775 65.3993 50.5916 64.9498C42.9547 63.4103 37.709 64.3632 35.8212 67.6328C33.9335 70.9024 35.7311 75.9219 40.8829 81.766C42.3639 83.4321 43.9384 85.0126 45.5988 86.5C43.9384 87.9874 42.3639 89.5679 40.8829 91.234C35.7311 97.0783 33.9335 102.098 35.8212 105.367C37.1196 107.616 40.0055 108.769 44.1659 108.769C46.3262 108.741 48.4785 108.5 50.5916 108.05C52.775 107.601 54.9311 107.027 57.0494 106.333C57.5073 108.515 58.0889 110.669 58.7914 112.784C61.2765 120.168 64.7246 124.234 68.5001 124.234C72.2757 124.234 75.7235 120.168 78.2089 112.784C78.9113 110.669 79.4928 108.515 79.9508 106.333C82.0691 107.027 84.2252 107.601 86.4086 108.05C88.5218 108.5 90.674 108.741 92.8343 108.769C96.9942 108.769 99.8809 107.616 101.179 105.367C103.067 102.098 101.269 97.0783 96.1174 91.234C94.6364 89.5679 93.0619 87.9874 91.4015 86.5ZM86.8138 66.9601C88.8162 66.5322 90.8558 66.3016 92.9032 66.2716C96.2163 66.2716 98.493 67.0819 99.403 68.6582C100.795 71.0695 99.0369 75.3529 94.5791 80.4097C93.0957 82.0771 91.516 83.6563 89.8482 85.1392C87.2245 82.9151 84.4778 80.8403 81.621 78.9247C81.3904 75.4929 80.9669 72.0767 80.3526 68.6924C82.4707 67.9896 84.6281 67.4111 86.8138 66.9601ZM74.1654 96.3125C72.277 97.4028 70.3827 98.4219 68.5001 99.364C66.6176 98.4219 64.7233 97.4028 62.8349 96.3125C60.9464 95.2222 59.1213 94.0954 57.3595 92.932C57.2342 90.8307 57.1696 88.6806 57.1696 86.5C57.1696 84.3194 57.2342 82.1694 57.3595 80.068C59.1167 78.9088 60.9418 77.7819 62.8349 76.6875C64.7233 75.5972 66.6176 74.5781 68.5001 73.636C70.3827 74.5781 72.277 75.5972 74.1654 76.6875C76.0539 77.7778 77.879 78.9046 79.6406 80.068C79.7661 82.1694 79.8307 84.3194 79.8307 86.5C79.8307 88.6806 79.7661 90.8307 79.6406 92.932C77.8836 94.0913 76.0585 95.2181 74.1654 96.3125ZM79.4553 95.4966C79.2134 98.3342 78.857 101.064 78.3927 103.635C75.9342 102.751 73.3923 101.695 70.8139 100.486C72.272 99.7293 73.7309 98.9303 75.1908 98.0885C76.6481 97.2472 78.0696 96.3832 79.4553 95.4966ZM66.1864 100.486C63.608 101.695 61.0661 102.751 58.6074 103.635C58.1432 101.064 57.7868 98.3343 57.545 95.4966C58.9291 96.3811 60.3505 97.2451 61.8095 98.0885C63.2667 98.9299 64.7257 99.729 66.1864 100.486ZM55.2312 91.4892C52.8947 89.8609 50.7091 88.1876 48.7146 86.5C50.7091 84.8125 52.8947 83.1392 55.2312 81.5109C55.1572 83.1519 55.1198 84.8149 55.1188 86.5C55.1188 88.1827 55.1563 89.8458 55.2312 91.4892ZM57.545 77.5035C57.7868 74.6657 58.1432 71.9363 58.6074 69.3653C61.0661 70.2488 63.608 71.3049 66.1864 72.5142C64.7283 73.2707 63.2693 74.0697 61.8095 74.9115C60.3522 75.7529 58.9307 76.6169 57.545 77.5035ZM70.8139 72.5142C73.3923 71.3049 75.9341 70.2488 78.3927 69.3653C78.857 71.9363 79.2134 74.6657 79.4553 77.5035C78.0711 76.6189 76.6496 75.7549 75.1908 74.9115C73.7335 74.0701 72.2746 73.271 70.8139 72.5142ZM81.769 81.5109C84.1056 83.1392 86.2912 84.8125 88.2857 86.5C86.2912 88.1876 84.1056 89.8609 81.769 91.4892C81.843 89.8482 81.8805 88.1851 81.8815 86.5C81.8815 84.8173 81.844 83.1542 81.769 81.5109ZM60.735 60.87C62.8855 54.4808 65.7158 50.8164 68.5001 50.8164C71.2843 50.8164 74.1147 54.4808 76.2653 60.87C76.9675 62.9883 77.5452 65.1459 77.9956 67.3316C74.7576 68.4917 71.5875 69.833 68.5001 71.3493C65.4128 69.833 62.2427 68.4917 59.0047 67.3316C59.455 65.1459 60.0327 62.9883 60.735 60.87ZM42.4212 80.4097C37.9633 75.3529 36.2051 71.0695 37.5972 68.6582C38.5075 67.0819 40.7833 66.2716 44.097 66.2716C46.1445 66.3016 48.184 66.5322 50.1865 66.9601C52.3721 67.4111 54.5295 67.9895 56.6476 68.6924C56.0332 72.0767 55.6098 75.4929 55.3792 78.9247C52.5225 80.8403 49.7758 82.9151 47.1521 85.1393C45.4843 83.6563 43.9046 82.0771 42.4212 80.4097ZM50.1865 106.04C43.5775 107.372 38.9893 106.753 37.5972 104.342C36.2051 101.931 37.9633 97.6471 42.4212 92.5903C43.9046 90.9229 45.4843 89.3437 47.1521 87.8608C49.7758 90.0849 52.5225 92.1597 55.3792 94.0753C55.6098 97.5071 56.0332 100.923 56.6476 104.308C54.5295 105.01 52.3721 105.589 50.1865 106.04ZM76.2653 112.13C74.1147 118.519 71.2845 122.184 68.5001 122.184C65.7158 122.184 62.8855 118.519 60.735 112.13C60.0328 110.012 59.455 107.854 59.0046 105.668C62.2426 104.508 65.4128 103.167 68.5001 101.651C71.5874 103.167 74.7576 104.508 77.9956 105.668C77.5452 107.854 76.9675 110.012 76.2653 112.13ZM99.403 104.342C98.0108 106.753 93.4227 107.372 86.8138 106.04C84.6281 105.589 82.4707 105.01 80.3526 104.308C80.9669 100.923 81.3904 97.5072 81.621 94.0754C84.4778 92.1598 87.2245 90.0849 89.8482 87.8608C91.516 89.3437 93.0956 90.9229 94.5791 92.5903C99.0369 97.6471 100.795 101.931 99.403 104.342ZM68.5001 81.6807C67.547 81.6807 66.6152 81.9633 65.8227 82.4929C65.0301 83.0224 64.4124 83.7751 64.0476 84.6557C63.6829 85.5363 63.5874 86.5053 63.7734 87.4402C63.9594 88.3751 64.4184 89.2338 65.0924 89.9078C65.7663 90.5818 66.6251 91.0408 67.5599 91.2267C68.4948 91.4127 69.4638 91.3172 70.3444 90.9525C71.225 90.5877 71.9777 89.97 72.5073 89.1775C73.0368 88.3849 73.3195 87.4532 73.3195 86.5C73.318 85.2223 72.8098 83.9973 71.9063 83.0938C71.0028 82.1903 69.7779 81.6821 68.5001 81.6807ZM68.5001 89.2686C67.9526 89.2686 67.4173 89.1062 66.962 88.802C66.5067 88.4978 66.1519 88.0654 65.9423 87.5595C65.7328 87.0536 65.6779 86.4969 65.7848 85.9599C65.8916 85.4228 66.1553 84.9295 66.5425 84.5423C66.9297 84.1551 67.423 83.8915 67.96 83.7846C68.4971 83.6778 69.0537 83.7326 69.5596 83.9422C70.0655 84.1517 70.4979 84.5066 70.8021 84.9619C71.1063 85.4172 71.2687 85.9524 71.2687 86.5C71.2679 87.234 70.9759 87.9377 70.4569 88.4568C69.9379 88.9758 69.2342 89.2677 68.5001 89.2686Z" fill="url(#paint0_linear_500_3411)"/>
<path d="M91.4015 86.5C93.0619 85.0126 94.6364 83.4321 96.1174 81.766C101.269 75.9218 103.067 70.9024 101.179 67.6328C99.2913 64.3634 94.0458 63.4105 86.4086 64.9498C84.2252 65.3993 82.0691 65.9725 79.9508 66.6668C79.4928 64.4852 78.9112 62.3314 78.2089 60.2158C75.7235 52.8319 72.2757 48.7656 68.5001 48.7656C64.7246 48.7656 61.2765 52.8319 58.7914 60.2158C58.0889 62.3313 57.5074 64.4851 57.0494 66.6668C54.9311 65.9725 52.775 65.3993 50.5916 64.9498C42.9547 63.4103 37.709 64.3632 35.8212 67.6328C33.9335 70.9024 35.7311 75.9219 40.8829 81.766C42.3639 83.4321 43.9384 85.0126 45.5988 86.5C43.9384 87.9874 42.3639 89.5679 40.8829 91.234C35.7311 97.0783 33.9335 102.098 35.8212 105.367C37.1196 107.616 40.0055 108.769 44.1659 108.769C46.3262 108.741 48.4785 108.5 50.5916 108.05C52.775 107.601 54.9311 107.027 57.0494 106.333C57.5073 108.515 58.0889 110.669 58.7914 112.784C61.2765 120.168 64.7246 124.234 68.5001 124.234C72.2757 124.234 75.7235 120.168 78.2089 112.784C78.9113 110.669 79.4928 108.515 79.9508 106.333C82.0691 107.027 84.2252 107.601 86.4086 108.05C88.5218 108.5 90.674 108.741 92.8343 108.769C96.9942 108.769 99.8809 107.616 101.179 105.367C103.067 102.098 101.269 97.0783 96.1174 91.234C94.6364 89.5679 93.0619 87.9874 91.4015 86.5ZM86.8138 66.9601C88.8162 66.5322 90.8558 66.3016 92.9032 66.2716C96.2163 66.2716 98.493 67.0819 99.403 68.6582C100.795 71.0695 99.0369 75.3529 94.5791 80.4097C93.0957 82.0771 91.516 83.6563 89.8482 85.1392C87.2245 82.9151 84.4778 80.8403 81.621 78.9247C81.3904 75.4929 80.9669 72.0767 80.3526 68.6924C82.4707 67.9896 84.6281 67.4111 86.8138 66.9601ZM74.1654 96.3125C72.277 97.4028 70.3827 98.4219 68.5001 99.364C66.6176 98.4219 64.7233 97.4028 62.8349 96.3125C60.9464 95.2222 59.1213 94.0954 57.3595 92.932C57.2342 90.8307 57.1696 88.6806 57.1696 86.5C57.1696 84.3194 57.2342 82.1694 57.3595 80.068C59.1167 78.9088 60.9418 77.7819 62.8349 76.6875C64.7233 75.5972 66.6176 74.5781 68.5001 73.636C70.3827 74.5781 72.277 75.5972 74.1654 76.6875C76.0539 77.7778 77.879 78.9046 79.6406 80.068C79.7661 82.1694 79.8307 84.3194 79.8307 86.5C79.8307 88.6806 79.7661 90.8307 79.6406 92.932C77.8836 94.0913 76.0585 95.2181 74.1654 96.3125ZM79.4553 95.4966C79.2134 98.3342 78.857 101.064 78.3927 103.635C75.9342 102.751 73.3923 101.695 70.8139 100.486C72.272 99.7293 73.7309 98.9303 75.1908 98.0885C76.6481 97.2472 78.0696 96.3832 79.4553 95.4966ZM66.1864 100.486C63.608 101.695 61.0661 102.751 58.6074 103.635C58.1432 101.064 57.7868 98.3343 57.545 95.4966C58.9291 96.3811 60.3505 97.2451 61.8095 98.0885C63.2667 98.9299 64.7257 99.729 66.1864 100.486ZM55.2312 91.4892C52.8947 89.8609 50.7091 88.1876 48.7146 86.5C50.7091 84.8125 52.8947 83.1392 55.2312 81.5109C55.1572 83.1519 55.1198 84.8149 55.1188 86.5C55.1188 88.1827 55.1563 89.8458 55.2312 91.4892ZM57.545 77.5035C57.7868 74.6657 58.1432 71.9363 58.6074 69.3653C61.0661 70.2488 63.608 71.3049 66.1864 72.5142C64.7283 73.2707 63.2693 74.0697 61.8095 74.9115C60.3522 75.7529 58.9307 76.6169 57.545 77.5035ZM70.8139 72.5142C73.3923 71.3049 75.9341 70.2488 78.3927 69.3653C78.857 71.9363 79.2134 74.6657 79.4553 77.5035C78.0711 76.6189 76.6496 75.7549 75.1908 74.9115C73.7335 74.0701 72.2746 73.271 70.8139 72.5142ZM81.769 81.5109C84.1056 83.1392 86.2912 84.8125 88.2857 86.5C86.2912 88.1876 84.1056 89.8609 81.769 91.4892C81.843 89.8482 81.8805 88.1851 81.8815 86.5C81.8815 84.8173 81.844 83.1542 81.769 81.5109ZM60.735 60.87C62.8855 54.4808 65.7158 50.8164 68.5001 50.8164C71.2843 50.8164 74.1147 54.4808 76.2653 60.87C76.9675 62.9883 77.5452 65.1459 77.9956 67.3316C74.7576 68.4917 71.5875 69.833 68.5001 71.3493C65.4128 69.833 62.2427 68.4917 59.0047 67.3316C59.455 65.1459 60.0327 62.9883 60.735 60.87ZM42.4212 80.4097C37.9633 75.3529 36.2051 71.0695 37.5972 68.6582C38.5075 67.0819 40.7833 66.2716 44.097 66.2716C46.1445 66.3016 48.184 66.5322 50.1865 66.9601C52.3721 67.4111 54.5295 67.9895 56.6476 68.6924C56.0332 72.0767 55.6098 75.4929 55.3792 78.9247C52.5225 80.8403 49.7758 82.9151 47.1521 85.1393C45.4843 83.6563 43.9046 82.0771 42.4212 80.4097ZM50.1865 106.04C43.5775 107.372 38.9893 106.753 37.5972 104.342C36.2051 101.931 37.9633 97.6471 42.4212 92.5903C43.9046 90.9229 45.4843 89.3437 47.1521 87.8608C49.7758 90.0849 52.5225 92.1597 55.3792 94.0753C55.6098 97.5071 56.0332 100.923 56.6476 104.308C54.5295 105.01 52.3721 105.589 50.1865 106.04ZM76.2653 112.13C74.1147 118.519 71.2845 122.184 68.5001 122.184C65.7158 122.184 62.8855 118.519 60.735 112.13C60.0328 110.012 59.455 107.854 59.0046 105.668C62.2426 104.508 65.4128 103.167 68.5001 101.651C71.5874 103.167 74.7576 104.508 77.9956 105.668C77.5452 107.854 76.9675 110.012 76.2653 112.13ZM99.403 104.342C98.0108 106.753 93.4227 107.372 86.8138 106.04C84.6281 105.589 82.4707 105.01 80.3526 104.308C80.9669 100.923 81.3904 97.5072 81.621 94.0754C84.4778 92.1598 87.2245 90.0849 89.8482 87.8608C91.516 89.3437 93.0956 90.9229 94.5791 92.5903C99.0369 97.6471 100.795 101.931 99.403 104.342ZM68.5001 81.6807C67.547 81.6807 66.6152 81.9633 65.8227 82.4929C65.0301 83.0224 64.4124 83.7751 64.0476 84.6557C63.6829 85.5363 63.5874 86.5053 63.7734 87.4402C63.9594 88.3751 64.4184 89.2338 65.0924 89.9078C65.7663 90.5818 66.6251 91.0408 67.5599 91.2267C68.4948 91.4127 69.4638 91.3172 70.3444 90.9525C71.225 90.5877 71.9777 89.97 72.5073 89.1775C73.0368 88.3849 73.3195 87.4532 73.3195 86.5C73.318 85.2223 72.8098 83.9973 71.9063 83.0938C71.0028 82.1903 69.7779 81.6821 68.5001 81.6807ZM68.5001 89.2686C67.9526 89.2686 67.4173 89.1062 66.962 88.802C66.5067 88.4978 66.1519 88.0654 65.9423 87.5595C65.7328 87.0536 65.6779 86.4969 65.7848 85.9599C65.8916 85.4228 66.1553 84.9295 66.5425 84.5423C66.9297 84.1551 67.423 83.8915 67.96 83.7846C68.4971 83.6778 69.0537 83.7326 69.5596 83.9422C70.0655 84.1517 70.4979 84.5066 70.8021 84.9619C71.1063 85.4172 71.2687 85.9524 71.2687 86.5C71.2679 87.234 70.9759 87.9377 70.4569 88.4568C69.9379 88.9758 69.2342 89.2677 68.5001 89.2686Z" fill="url(#paint1_linear_500_3411)"/>
<defs>
<linearGradient id="paint0_linear_500_3411" x1="54.8802" y1="93.1722" x2="100.357" y2="93.1722" gradientUnits="userSpaceOnUse">
<stop stop-color="#DD2C34"/>
<stop offset="1" stop-color="#5D1098"/>
</linearGradient>
<linearGradient id="paint1_linear_500_3411" x1="54.8802" y1="93.1722" x2="100.357" y2="93.1722" gradientUnits="userSpaceOnUse">
<stop stop-color="#E9777C"/>
<stop offset="1" stop-color="#A76FD2"/>
</linearGradient>
</defs>
</svg>
