<svg width="252" height="146" viewBox="0 0 252 146" fill="none" xmlns="http://www.w3.org/2000/svg">
<rect width="252" height="146" rx="4" fill="#F6F6F9"/>
<path d="M91.4015 88.5C93.0619 87.0126 94.6364 85.4321 96.1174 83.766C101.269 77.9218 103.067 72.9024 101.179 69.6328C99.2913 66.3634 94.0458 65.4105 86.4086 66.9498C84.2252 67.3993 82.0691 67.9725 79.9508 68.6668C79.4928 66.4852 78.9112 64.3314 78.2089 62.2158C75.7235 54.8319 72.2757 50.7656 68.5001 50.7656C64.7246 50.7656 61.2765 54.8319 58.7914 62.2158C58.0889 64.3313 57.5074 66.4851 57.0494 68.6668C54.9311 67.9725 52.775 67.3993 50.5916 66.9498C42.9547 65.4103 37.709 66.3632 35.8212 69.6328C33.9335 72.9024 35.7311 77.9219 40.8829 83.766C42.3639 85.4321 43.9384 87.0126 45.5988 88.5C43.9384 89.9874 42.3639 91.5679 40.8829 93.234C35.7311 99.0783 33.9335 104.098 35.8212 107.367C37.1196 109.616 40.0055 110.769 44.1659 110.769C46.3262 110.741 48.4785 110.5 50.5916 110.05C52.775 109.601 54.9311 109.027 57.0494 108.333C57.5073 110.515 58.0889 112.669 58.7914 114.784C61.2765 122.168 64.7246 126.234 68.5001 126.234C72.2757 126.234 75.7235 122.168 78.2089 114.784C78.9113 112.669 79.4928 110.515 79.9508 108.333C82.0691 109.027 84.2252 109.601 86.4086 110.05C88.5218 110.5 90.674 110.741 92.8343 110.769C96.9942 110.769 99.8809 109.616 101.179 107.367C103.067 104.098 101.269 99.0783 96.1174 93.234C94.6364 91.5679 93.0619 89.9874 91.4015 88.5ZM86.8138 68.9601C88.8162 68.5322 90.8558 68.3016 92.9032 68.2716C96.2163 68.2716 98.493 69.0819 99.403 70.6582C100.795 73.0695 99.0369 77.3529 94.5791 82.4097C93.0957 84.0771 91.516 85.6563 89.8482 87.1392C87.2245 84.9151 84.4778 82.8403 81.621 80.9247C81.3904 77.4929 80.9669 74.0767 80.3526 70.6924C82.4707 69.9896 84.6281 69.4111 86.8138 68.9601ZM74.1654 98.3125C72.277 99.4028 70.3827 100.422 68.5001 101.364C66.6176 100.422 64.7233 99.4028 62.8349 98.3125C60.9464 97.2222 59.1213 96.0954 57.3595 94.932C57.2342 92.8307 57.1696 90.6806 57.1696 88.5C57.1696 86.3194 57.2342 84.1694 57.3595 82.068C59.1167 80.9088 60.9418 79.7819 62.8349 78.6875C64.7233 77.5972 66.6176 76.5781 68.5001 75.636C70.3827 76.5781 72.277 77.5972 74.1654 78.6875C76.0539 79.7778 77.879 80.9046 79.6406 82.068C79.7661 84.1694 79.8307 86.3194 79.8307 88.5C79.8307 90.6806 79.7661 92.8307 79.6406 94.932C77.8836 96.0913 76.0585 97.2181 74.1654 98.3125ZM79.4553 97.4966C79.2134 100.334 78.857 103.064 78.3927 105.635C75.9342 104.751 73.3923 103.695 70.8139 102.486C72.272 101.729 73.7309 100.93 75.1908 100.089C76.6481 99.2472 78.0696 98.3832 79.4553 97.4966ZM66.1864 102.486C63.608 103.695 61.0661 104.751 58.6074 105.635C58.1432 103.064 57.7868 100.334 57.545 97.4966C58.9291 98.3811 60.3505 99.2451 61.8095 100.089C63.2667 100.93 64.7257 101.729 66.1864 102.486ZM55.2312 93.4892C52.8947 91.8609 50.7091 90.1876 48.7146 88.5C50.7091 86.8125 52.8947 85.1392 55.2312 83.5109C55.1572 85.1519 55.1198 86.8149 55.1188 88.5C55.1188 90.1827 55.1563 91.8458 55.2312 93.4892ZM57.545 79.5035C57.7868 76.6657 58.1432 73.9363 58.6074 71.3653C61.0661 72.2488 63.608 73.3049 66.1864 74.5142C64.7283 75.2707 63.2693 76.0697 61.8095 76.9115C60.3522 77.7529 58.9307 78.6169 57.545 79.5035ZM70.8139 74.5142C73.3923 73.3049 75.9341 72.2488 78.3927 71.3653C78.857 73.9363 79.2134 76.6657 79.4553 79.5035C78.0711 78.6189 76.6496 77.7549 75.1908 76.9115C73.7335 76.0701 72.2746 75.271 70.8139 74.5142ZM81.769 83.5109C84.1056 85.1392 86.2912 86.8125 88.2857 88.5C86.2912 90.1876 84.1056 91.8609 81.769 93.4892C81.843 91.8482 81.8805 90.1851 81.8815 88.5C81.8815 86.8173 81.844 85.1542 81.769 83.5109ZM60.735 62.87C62.8855 56.4808 65.7158 52.8164 68.5001 52.8164C71.2843 52.8164 74.1147 56.4808 76.2653 62.87C76.9675 64.9883 77.5452 67.1459 77.9956 69.3316C74.7576 70.4917 71.5875 71.833 68.5001 73.3493C65.4128 71.833 62.2427 70.4917 59.0047 69.3316C59.455 67.1459 60.0327 64.9883 60.735 62.87ZM42.4212 82.4097C37.9633 77.3529 36.2051 73.0695 37.5972 70.6582C38.5075 69.0819 40.7833 68.2716 44.097 68.2716C46.1445 68.3016 48.184 68.5322 50.1865 68.9601C52.3721 69.4111 54.5295 69.9895 56.6476 70.6924C56.0332 74.0767 55.6098 77.4929 55.3792 80.9247C52.5225 82.8403 49.7758 84.9151 47.1521 87.1393C45.4843 85.6563 43.9046 84.0771 42.4212 82.4097ZM50.1865 108.04C43.5775 109.372 38.9893 108.753 37.5972 106.342C36.2051 103.931 37.9633 99.6471 42.4212 94.5903C43.9046 92.9229 45.4843 91.3437 47.1521 89.8608C49.7758 92.0849 52.5225 94.1597 55.3792 96.0753C55.6098 99.5071 56.0332 102.923 56.6476 106.308C54.5295 107.01 52.3721 107.589 50.1865 108.04ZM76.2653 114.13C74.1147 120.519 71.2845 124.184 68.5001 124.184C65.7158 124.184 62.8855 120.519 60.735 114.13C60.0328 112.012 59.455 109.854 59.0046 107.668C62.2426 106.508 65.4128 105.167 68.5001 103.651C71.5874 105.167 74.7576 106.508 77.9956 107.668C77.5452 109.854 76.9675 112.012 76.2653 114.13ZM99.403 106.342C98.0108 108.753 93.4227 109.372 86.8138 108.04C84.6281 107.589 82.4707 107.01 80.3526 106.308C80.9669 102.923 81.3904 99.5072 81.621 96.0754C84.4778 94.1598 87.2245 92.0849 89.8482 89.8608C91.516 91.3437 93.0956 92.9229 94.5791 94.5903C99.0369 99.6471 100.795 103.931 99.403 106.342ZM68.5001 83.6807C67.547 83.6807 66.6152 83.9633 65.8227 84.4929C65.0301 85.0224 64.4124 85.7751 64.0476 86.6557C63.6829 87.5363 63.5874 88.5053 63.7734 89.4402C63.9594 90.3751 64.4184 91.2338 65.0924 91.9078C65.7663 92.5818 66.6251 93.0408 67.5599 93.2267C68.4948 93.4127 69.4638 93.3172 70.3444 92.9525C71.225 92.5877 71.9777 91.97 72.5073 91.1775C73.0368 90.3849 73.3195 89.4532 73.3195 88.5C73.318 87.2223 72.8098 85.9973 71.9063 85.0938C71.0028 84.1903 69.7779 83.6821 68.5001 83.6807ZM68.5001 91.2686C67.9526 91.2686 67.4173 91.1062 66.962 90.802C66.5067 90.4978 66.1519 90.0654 65.9423 89.5595C65.7328 89.0536 65.6779 88.4969 65.7848 87.9599C65.8916 87.4228 66.1553 86.9295 66.5425 86.5423C66.9297 86.1551 67.423 85.8915 67.96 85.7846C68.4971 85.6778 69.0537 85.7326 69.5596 85.9422C70.0655 86.1517 70.4979 86.5066 70.8021 86.9619C71.1063 87.4172 71.2687 87.9524 71.2687 88.5C71.2679 89.234 70.9759 89.9377 70.4569 90.4568C69.9379 90.9758 69.2342 91.2677 68.5001 91.2686Z" fill="url(#paint0_linear_500_3394)"/>
<defs>
<linearGradient id="paint0_linear_500_3394" x1="54.8802" y1="95.1722" x2="100.357" y2="95.1722" gradientUnits="userSpaceOnUse">
<stop stop-color="#DD2C34"/>
<stop offset="1" stop-color="#5D1098"/>
</linearGradient>
</defs>
</svg>
