<svg width="22" height="21" viewBox="0 0 22 21" fill="none" xmlns="http://www.w3.org/2000/svg">
<path d="M10.5248 1.29502C10.5687 1.20648 10.6364 1.13195 10.7203 1.07984C10.8042 1.02773 10.9011 1.00012 10.9998 1.00012C11.0986 1.00012 11.1955 1.02773 11.2794 1.07984C11.3633 1.13195 11.431 1.20648 11.4748 1.29502L13.7848 5.97402C13.9368 6.28214 14.1614 6.54871 14.4392 6.75078C14.7171 6.95286 15.0399 7.08437 15.3798 7.13402L20.5458 7.89002C20.6437 7.9042 20.7357 7.94549 20.8113 8.00921C20.887 8.07294 20.9433 8.15656 20.9739 8.25062C21.0045 8.34468 21.0081 8.44542 20.9844 8.54145C20.9607 8.63748 20.9107 8.72497 20.8398 8.79402L17.1038 12.432C16.8573 12.672 16.6728 12.9683 16.5663 13.2955C16.4599 13.6227 16.4346 13.9709 16.4928 14.31L17.3748 19.45C17.3921 19.5479 17.3816 19.6486 17.3443 19.7407C17.3071 19.8328 17.2448 19.9126 17.1644 19.971C17.084 20.0294 16.9888 20.064 16.8897 20.0709C16.7906 20.0778 16.6915 20.0567 16.6038 20.01L11.9858 17.582C11.6816 17.4221 11.3431 17.3385 10.9993 17.3385C10.6556 17.3385 10.3171 17.4221 10.0128 17.582L5.39585 20.01C5.30818 20.0564 5.20924 20.0773 5.1103 20.0703C5.01135 20.0632 4.91636 20.0286 4.83614 19.9702C4.75592 19.9119 4.69368 19.8322 4.6565 19.7402C4.61933 19.6483 4.6087 19.5477 4.62585 19.45L5.50685 14.311C5.56522 13.9717 5.54009 13.6234 5.43363 13.296C5.32718 12.9686 5.1426 12.6721 4.89585 12.432L1.15985 8.79502C1.08844 8.72605 1.03784 8.63841 1.01381 8.54209C0.989778 8.44577 0.993284 8.34463 1.02393 8.25021C1.05457 8.15578 1.11111 8.07186 1.18712 8.008C1.26313 7.94414 1.35555 7.90291 1.45385 7.88902L6.61885 7.13402C6.95916 7.08468 7.28236 6.9533 7.56058 6.75121C7.8388 6.54912 8.06369 6.28239 8.21585 5.97402L10.5248 1.29502Z" stroke="#414042" stroke-width="1.2" stroke-linecap="round" stroke-linejoin="round"/>
</svg>
